<svg width="362" height="825" viewBox="0 0 362 825" fill="none" xmlns="http://www.w3.org/2000/svg">
  <rect width="362" height="825" fill="#70BD91" />
  <path fill-rule="evenodd" clip-rule="evenodd"
    d="M52.9933 30.8834C52.9355 30.386 52.5128 30 52 30C51.4477 30 51 30.4477 51 31V32H45V31L44.9933 30.8834C44.9355 30.386 44.5128 30 44 30C43.4477 30 43 30.4477 43 31V32H42C40.3431 32 39 33.3431 39 35V39V47C39 48.6569 40.3431 50 42 50H54C55.6569 50 57 48.6569 57 47V39V35C57 33.3431 55.6569 32 54 32H53V31L52.9933 30.8834ZM55 38V35C55 34.4477 54.5523 34 54 34H53V35C53 35.5523 52.5523 36 52 36C51.4872 36 51.0645 35.614 51.0067 35.1166L51 35V34H45V35C45 35.5523 44.5523 36 44 36C43.4872 36 43.0645 35.614 43.0067 35.1166L43 35V34H42C41.4477 34 41 34.4477 41 35V38H55ZM41 40H55V47C55 47.5523 54.5523 48 54 48H42C41.4477 48 41 47.5523 41 47V40ZM48.9933 42.8834C48.9977 42.9216 49 42.9606 49 43V46C49 46.5523 48.5523 47 48 47C47.4872 47 47.0645 46.614 47.0067 46.1166L47 46V44C46.4477 44 46 43.5523 46 43C46 42.4872 46.386 42.0645 46.8834 42.0067L47 42H48C48.5128 42 48.9355 42.386 48.9933 42.8834C48.9933 42.8834 48.9933 42.8834 48.9933 42.8834Z"
    fill="white" />
  <path
    d="M94.7727 38H93.3636C93.2803 37.5947 93.1345 37.2386 92.9261 36.9318C92.7216 36.625 92.4716 36.3674 92.1761 36.1591C91.8845 35.947 91.5606 35.7879 91.2045 35.6818C90.8485 35.5758 90.4773 35.5227 90.0909 35.5227C89.3864 35.5227 88.7481 35.7008 88.1761 36.0568C87.608 36.4129 87.1553 36.9375 86.8182 37.6307C86.4848 38.3239 86.3182 39.1742 86.3182 40.1818C86.3182 41.1894 86.4848 42.0398 86.8182 42.733C87.1553 43.4261 87.608 43.9508 88.1761 44.3068C88.7481 44.6629 89.3864 44.8409 90.0909 44.8409C90.4773 44.8409 90.8485 44.7879 91.2045 44.6818C91.5606 44.5758 91.8845 44.4186 92.1761 44.2102C92.4716 43.9981 92.7216 43.7386 92.9261 43.4318C93.1345 43.1212 93.2803 42.7652 93.3636 42.3636H94.7727C94.6667 42.9583 94.4735 43.4905 94.1932 43.9602C93.9129 44.4299 93.5644 44.8295 93.1477 45.1591C92.7311 45.4848 92.2633 45.733 91.7443 45.9034C91.2292 46.0739 90.678 46.1591 90.0909 46.1591C89.0985 46.1591 88.2159 45.9167 87.4432 45.4318C86.6705 44.947 86.0625 44.2576 85.6193 43.3636C85.1761 42.4697 84.9545 41.4091 84.9545 40.1818C84.9545 38.9545 85.1761 37.8939 85.6193 37C86.0625 36.1061 86.6705 35.4167 87.4432 34.9318C88.2159 34.447 89.0985 34.2045 90.0909 34.2045C90.678 34.2045 91.2292 34.2898 91.7443 34.4602C92.2633 34.6307 92.7311 34.8807 93.1477 35.2102C93.5644 35.536 93.9129 35.9337 94.1932 36.4034C94.4735 36.8693 94.6667 37.4015 94.7727 38ZM98.9561 46.2045C98.403 46.2045 97.9012 46.1004 97.4504 45.892C96.9996 45.6799 96.6417 45.375 96.3765 44.9773C96.1114 44.5758 95.9788 44.0909 95.9788 43.5227C95.9788 43.0227 96.0773 42.6174 96.2743 42.3068C96.4712 41.9924 96.7345 41.7462 97.064 41.5682C97.3936 41.3902 97.7572 41.2576 98.1549 41.1705C98.5565 41.0795 98.9599 41.0076 99.3652 40.9545C99.8955 40.8864 100.325 40.8352 100.655 40.8011C100.988 40.7633 101.231 40.7008 101.382 40.6136C101.538 40.5265 101.615 40.375 101.615 40.1591V40.1136C101.615 39.553 101.462 39.1174 101.155 38.8068C100.852 38.4962 100.392 38.3409 99.7743 38.3409C99.1341 38.3409 98.6322 38.4811 98.2686 38.7614C97.9049 39.0417 97.6493 39.3409 97.5015 39.6591L96.2288 39.2045C96.4561 38.6742 96.7591 38.2614 97.1379 37.9659C97.5205 37.6667 97.9371 37.4583 98.3879 37.3409C98.8424 37.2197 99.2894 37.1591 99.7288 37.1591C100.009 37.1591 100.331 37.1932 100.695 37.2614C101.062 37.3258 101.416 37.4602 101.757 37.6648C102.102 37.8693 102.388 38.178 102.615 38.5909C102.842 39.0038 102.956 39.5568 102.956 40.25V46H101.615V44.8182H101.547C101.456 45.0076 101.305 45.2102 101.092 45.4261C100.88 45.642 100.598 45.8258 100.246 45.9773C99.8936 46.1288 99.4637 46.2045 98.9561 46.2045ZM99.1606 45C99.6909 45 100.138 44.8958 100.502 44.6875C100.869 44.4792 101.145 44.2102 101.331 43.8807C101.52 43.5511 101.615 43.2045 101.615 42.8409V41.6136C101.558 41.6818 101.433 41.7443 101.24 41.8011C101.051 41.8542 100.831 41.9015 100.581 41.9432C100.335 41.9811 100.094 42.0152 99.8595 42.0455C99.6284 42.072 99.4409 42.0947 99.297 42.1136C98.9485 42.1591 98.6227 42.233 98.3197 42.3352C98.0205 42.4337 97.778 42.5833 97.5924 42.7841C97.4106 42.9811 97.3197 43.25 97.3197 43.5909C97.3197 44.0568 97.4921 44.4091 97.8368 44.6477C98.1852 44.8826 98.6265 45 99.1606 45ZM106.264 34.3636V46H104.924V34.3636H106.264ZM111.899 46.1818C111.059 46.1818 110.333 45.9962 109.723 45.625C109.117 45.25 108.649 44.7273 108.32 44.0568C107.994 43.3826 107.831 42.5985 107.831 41.7045C107.831 40.8106 107.994 40.0227 108.32 39.3409C108.649 38.6553 109.108 38.1212 109.695 37.7386C110.286 37.3523 110.975 37.1591 111.763 37.1591C112.218 37.1591 112.667 37.2348 113.11 37.3864C113.553 37.5379 113.956 37.7841 114.32 38.125C114.684 38.4621 114.973 38.9091 115.189 39.4659C115.405 40.0227 115.513 40.7083 115.513 41.5227V42.0909H108.786V40.9318H114.149C114.149 40.4394 114.051 40 113.854 39.6136C113.661 39.2273 113.384 38.9223 113.024 38.6989C112.668 38.4754 112.248 38.3636 111.763 38.3636C111.229 38.3636 110.767 38.4962 110.377 38.7614C109.99 39.0227 109.693 39.3636 109.485 39.7841C109.276 40.2045 109.172 40.6553 109.172 41.1364V41.9091C109.172 42.5682 109.286 43.1269 109.513 43.5852C109.744 44.0398 110.064 44.3864 110.473 44.625C110.882 44.8598 111.358 44.9773 111.899 44.9773C112.252 44.9773 112.57 44.928 112.854 44.8295C113.142 44.7273 113.39 44.5758 113.598 44.375C113.807 44.1705 113.968 43.9167 114.081 43.6136L115.377 43.9773C115.24 44.4167 115.011 44.803 114.689 45.1364C114.367 45.4659 113.97 45.7235 113.496 45.9091C113.023 46.0909 112.49 46.1818 111.899 46.1818ZM118.414 40.75V46H117.073V37.2727H118.368V38.6364H118.482C118.687 38.1932 118.997 37.8371 119.414 37.5682C119.83 37.2955 120.368 37.1591 121.027 37.1591C121.618 37.1591 122.135 37.2803 122.579 37.5227C123.022 37.7614 123.366 38.125 123.613 38.6136C123.859 39.0985 123.982 39.7121 123.982 40.4545V46H122.641V40.5455C122.641 39.8598 122.463 39.3258 122.107 38.9432C121.751 38.5568 121.262 38.3636 120.641 38.3636C120.213 38.3636 119.83 38.4564 119.493 38.642C119.16 38.8277 118.897 39.0985 118.704 39.4545C118.51 39.8106 118.414 40.2424 118.414 40.75ZM129.248 46.1818C128.52 46.1818 127.878 45.9981 127.322 45.6307C126.765 45.2595 126.329 44.7367 126.015 44.0625C125.7 43.3845 125.543 42.5833 125.543 41.6591C125.543 40.7424 125.7 39.947 126.015 39.2727C126.329 38.5985 126.767 38.0777 127.327 37.7102C127.888 37.3428 128.536 37.1591 129.27 37.1591C129.839 37.1591 130.287 37.2538 130.617 37.4432C130.95 37.6288 131.204 37.8409 131.378 38.0795C131.556 38.3144 131.695 38.5076 131.793 38.6591H131.907V34.3636H133.248V46H131.952V44.6591H131.793C131.695 44.8182 131.555 45.0189 131.373 45.2614C131.191 45.5 130.931 45.714 130.594 45.9034C130.257 46.089 129.808 46.1818 129.248 46.1818ZM129.43 44.9773C129.967 44.9773 130.422 44.8371 130.793 44.5568C131.164 44.2727 131.447 43.8807 131.64 43.3807C131.833 42.8769 131.93 42.2955 131.93 41.6364C131.93 40.9848 131.835 40.4148 131.645 39.9261C131.456 39.4337 131.176 39.0511 130.805 38.7784C130.433 38.5019 129.975 38.3636 129.43 38.3636C128.861 38.3636 128.388 38.5095 128.009 38.8011C127.634 39.089 127.352 39.4811 127.162 39.9773C126.977 40.4697 126.884 41.0227 126.884 41.6364C126.884 42.2576 126.979 42.822 127.168 43.3295C127.361 43.8333 127.645 44.2348 128.02 44.5341C128.399 44.8295 128.869 44.9773 129.43 44.9773ZM137.978 46.2045C137.425 46.2045 136.923 46.1004 136.472 45.892C136.022 45.6799 135.664 45.375 135.398 44.9773C135.133 44.5758 135.001 44.0909 135.001 43.5227C135.001 43.0227 135.099 42.6174 135.296 42.3068C135.493 41.9924 135.756 41.7462 136.086 41.5682C136.415 41.3902 136.779 41.2576 137.177 41.1705C137.578 41.0795 137.982 41.0076 138.387 40.9545C138.917 40.8864 139.347 40.8352 139.677 40.8011C140.01 40.7633 140.253 40.7008 140.404 40.6136C140.559 40.5265 140.637 40.375 140.637 40.1591V40.1136C140.637 39.553 140.484 39.1174 140.177 38.8068C139.874 38.4962 139.414 38.3409 138.796 38.3409C138.156 38.3409 137.654 38.4811 137.29 38.7614C136.927 39.0417 136.671 39.3409 136.523 39.6591L135.251 39.2045C135.478 38.6742 135.781 38.2614 136.16 37.9659C136.542 37.6667 136.959 37.4583 137.41 37.3409C137.864 37.2197 138.311 37.1591 138.751 37.1591C139.031 37.1591 139.353 37.1932 139.717 37.2614C140.084 37.3258 140.438 37.4602 140.779 37.6648C141.124 37.8693 141.41 38.178 141.637 38.5909C141.864 39.0038 141.978 39.5568 141.978 40.25V46H140.637V44.8182H140.569C140.478 45.0076 140.326 45.2102 140.114 45.4261C139.902 45.642 139.62 45.8258 139.268 45.9773C138.915 46.1288 138.486 46.2045 137.978 46.2045ZM138.182 45C138.713 45 139.16 44.8958 139.523 44.6875C139.891 44.4792 140.167 44.2102 140.353 43.8807C140.542 43.5511 140.637 43.2045 140.637 42.8409V41.6136C140.58 41.6818 140.455 41.7443 140.262 41.8011C140.073 41.8542 139.853 41.9015 139.603 41.9432C139.357 41.9811 139.116 42.0152 138.881 42.0455C138.65 42.072 138.463 42.0947 138.319 42.1136C137.97 42.1591 137.645 42.233 137.342 42.3352C137.042 42.4337 136.8 42.5833 136.614 42.7841C136.432 42.9811 136.342 43.25 136.342 43.5909C136.342 44.0568 136.514 44.4091 136.859 44.6477C137.207 44.8826 137.648 45 138.182 45ZM143.945 46V37.2727H145.241V38.5909H145.332C145.491 38.1591 145.779 37.8087 146.195 37.5398C146.612 37.2708 147.082 37.1364 147.604 37.1364C147.703 37.1364 147.826 37.1383 147.974 37.142C148.122 37.1458 148.233 37.1515 148.309 37.1591V38.5227C148.264 38.5114 148.159 38.4943 147.997 38.4716C147.837 38.4451 147.669 38.4318 147.491 38.4318C147.067 38.4318 146.688 38.5208 146.354 38.6989C146.025 38.8731 145.764 39.1155 145.57 39.4261C145.381 39.733 145.286 40.0833 145.286 40.4773V46H143.945Z"
    fill="white" />
  <path fill-rule="evenodd" clip-rule="evenodd"
    d="M55.2929 86.2929C55.6834 85.9024 56.3166 85.9024 56.7071 86.2929C57.0676 86.6534 57.0953 87.2206 56.7903 87.6129L56.7071 87.7071L46.7071 97.7071C46.3466 98.0676 45.7794 98.0953 45.3871 97.7903L45.2929 97.7071L40.2929 92.7071C39.9024 92.3166 39.9024 91.6834 40.2929 91.2929C40.6534 90.9324 41.2206 90.9047 41.6129 91.2097L41.7071 91.2929L46 95.585L55.2929 86.2929Z"
    fill="white" />
  <path
    d="M94.7727 90H93.3636C93.2803 89.5947 93.1345 89.2386 92.9261 88.9318C92.7216 88.625 92.4716 88.3674 92.1761 88.1591C91.8845 87.947 91.5606 87.7879 91.2045 87.6818C90.8485 87.5758 90.4773 87.5227 90.0909 87.5227C89.3864 87.5227 88.7481 87.7008 88.1761 88.0568C87.608 88.4129 87.1553 88.9375 86.8182 89.6307C86.4848 90.3239 86.3182 91.1742 86.3182 92.1818C86.3182 93.1894 86.4848 94.0398 86.8182 94.733C87.1553 95.4261 87.608 95.9508 88.1761 96.3068C88.7481 96.6629 89.3864 96.8409 90.0909 96.8409C90.4773 96.8409 90.8485 96.7879 91.2045 96.6818C91.5606 96.5758 91.8845 96.4186 92.1761 96.2102C92.4716 95.9981 92.7216 95.7386 92.9261 95.4318C93.1345 95.1212 93.2803 94.7652 93.3636 94.3636H94.7727C94.6667 94.9583 94.4735 95.4905 94.1932 95.9602C93.9129 96.4299 93.5644 96.8295 93.1477 97.1591C92.7311 97.4848 92.2633 97.733 91.7443 97.9034C91.2292 98.0739 90.678 98.1591 90.0909 98.1591C89.0985 98.1591 88.2159 97.9167 87.4432 97.4318C86.6705 96.947 86.0625 96.2576 85.6193 95.3636C85.1761 94.4697 84.9545 93.4091 84.9545 92.1818C84.9545 90.9545 85.1761 89.8939 85.6193 89C86.0625 88.1061 86.6705 87.4167 87.4432 86.9318C88.2159 86.447 89.0985 86.2045 90.0909 86.2045C90.678 86.2045 91.2292 86.2898 91.7443 86.4602C92.2633 86.6307 92.7311 86.8807 93.1477 87.2102C93.5644 87.536 93.9129 87.9337 94.1932 88.4034C94.4735 88.8693 94.6667 89.4015 94.7727 90ZM97.7288 92.75V98H96.3879V86.3636H97.7288V90.6364H97.8424C98.047 90.1856 98.3538 89.8277 98.7629 89.5625C99.1758 89.2936 99.725 89.1591 100.411 89.1591C101.005 89.1591 101.526 89.2784 101.973 89.517C102.42 89.7519 102.767 90.1136 103.013 90.6023C103.263 91.0871 103.388 91.7045 103.388 92.4545V98H102.047V92.5455C102.047 91.8523 101.867 91.3163 101.507 90.9375C101.151 90.5549 100.657 90.3636 100.024 90.3636C99.5849 90.3636 99.1909 90.4564 98.8424 90.642C98.4977 90.8277 98.225 91.0985 98.0243 91.4545C97.8273 91.8106 97.7288 92.2424 97.7288 92.75ZM109.02 98.1818C108.179 98.1818 107.454 97.9962 106.844 97.625C106.238 97.25 105.77 96.7273 105.441 96.0568C105.115 95.3826 104.952 94.5985 104.952 93.7045C104.952 92.8106 105.115 92.0227 105.441 91.3409C105.77 90.6553 106.228 90.1212 106.816 89.7386C107.406 89.3523 108.096 89.1591 108.884 89.1591C109.338 89.1591 109.787 89.2348 110.23 89.3864C110.674 89.5379 111.077 89.7841 111.441 90.125C111.804 90.4621 112.094 90.9091 112.31 91.4659C112.526 92.0227 112.634 92.7083 112.634 93.5227V94.0909H105.906V92.9318H111.27C111.27 92.4394 111.172 92 110.975 91.6136C110.781 91.2273 110.505 90.9223 110.145 90.6989C109.789 90.4754 109.369 90.3636 108.884 90.3636C108.35 90.3636 107.888 90.4962 107.497 90.7614C107.111 91.0227 106.814 91.3636 106.605 91.7841C106.397 92.2045 106.293 92.6553 106.293 93.1364V93.9091C106.293 94.5682 106.406 95.1269 106.634 95.5852C106.865 96.0398 107.185 96.3864 107.594 96.625C108.003 96.8598 108.478 96.9773 109.02 96.9773C109.372 96.9773 109.691 96.928 109.975 96.8295C110.263 96.7273 110.511 96.5758 110.719 96.375C110.927 96.1705 111.088 95.9167 111.202 95.6136L112.497 95.9773C112.361 96.4167 112.132 96.803 111.81 97.1364C111.488 97.4659 111.09 97.7235 110.617 97.9091C110.143 98.0909 109.611 98.1818 109.02 98.1818ZM117.739 98.1818C116.921 98.1818 116.216 97.9886 115.625 97.6023C115.034 97.2159 114.58 96.6837 114.262 96.0057C113.944 95.3277 113.784 94.553 113.784 93.6818C113.784 92.7955 113.947 92.0133 114.273 91.3352C114.603 90.6534 115.061 90.1212 115.648 89.7386C116.239 89.3523 116.928 89.1591 117.716 89.1591C118.33 89.1591 118.883 89.2727 119.375 89.5C119.868 89.7273 120.271 90.0455 120.586 90.4545C120.9 90.8636 121.095 91.3409 121.171 91.8864H119.83C119.728 91.4886 119.5 91.1364 119.148 90.8295C118.8 90.5189 118.33 90.3636 117.739 90.3636C117.216 90.3636 116.758 90.5 116.364 90.7727C115.974 91.0417 115.669 91.4223 115.449 91.9148C115.233 92.4034 115.125 92.9773 115.125 93.6364C115.125 94.3106 115.231 94.8977 115.444 95.3977C115.659 95.8977 115.962 96.286 116.353 96.5625C116.747 96.839 117.209 96.9773 117.739 96.9773C118.087 96.9773 118.404 96.9167 118.688 96.7955C118.972 96.6742 119.212 96.5 119.409 96.2727C119.606 96.0455 119.747 95.7727 119.83 95.4545H121.171C121.095 95.9697 120.908 96.4337 120.608 96.8466C120.313 97.2557 119.921 97.5814 119.432 97.8239C118.947 98.0625 118.383 98.1818 117.739 98.1818ZM123.901 94.8182L123.878 93.1591H124.151L127.969 89.2727H129.628L125.56 93.3864H125.446L123.901 94.8182ZM122.651 98V86.3636H123.992V98H122.651ZM128.196 98L124.787 93.6818L125.742 92.75L129.901 98H128.196Z"
    fill="white" />
  <path fill-rule="evenodd" clip-rule="evenodd"
    d="M41.2929 140.293C41.6534 139.932 42.2206 139.905 42.6129 140.21L42.7071 140.293L48 145.585L53.2929 140.293C53.6534 139.932 54.2206 139.905 54.6129 140.21L54.7071 140.293C55.0676 140.653 55.0953 141.221 54.7903 141.613L54.7071 141.707L48.7071 147.707C48.3466 148.068 47.7794 148.095 47.3871 147.79L47.2929 147.707L41.2929 141.707C40.9024 141.317 40.9024 140.683 41.2929 140.293Z"
    fill="white" />
  <path
    d="M94.7727 142H93.3636C93.2803 141.595 93.1345 141.239 92.9261 140.932C92.7216 140.625 92.4716 140.367 92.1761 140.159C91.8845 139.947 91.5606 139.788 91.2045 139.682C90.8485 139.576 90.4773 139.523 90.0909 139.523C89.3864 139.523 88.7481 139.701 88.1761 140.057C87.608 140.413 87.1553 140.938 86.8182 141.631C86.4848 142.324 86.3182 143.174 86.3182 144.182C86.3182 145.189 86.4848 146.04 86.8182 146.733C87.1553 147.426 87.608 147.951 88.1761 148.307C88.7481 148.663 89.3864 148.841 90.0909 148.841C90.4773 148.841 90.8485 148.788 91.2045 148.682C91.5606 148.576 91.8845 148.419 92.1761 148.21C92.4716 147.998 92.7216 147.739 92.9261 147.432C93.1345 147.121 93.2803 146.765 93.3636 146.364H94.7727C94.6667 146.958 94.4735 147.491 94.1932 147.96C93.9129 148.43 93.5644 148.83 93.1477 149.159C92.7311 149.485 92.2633 149.733 91.7443 149.903C91.2292 150.074 90.678 150.159 90.0909 150.159C89.0985 150.159 88.2159 149.917 87.4432 149.432C86.6705 148.947 86.0625 148.258 85.6193 147.364C85.1761 146.47 84.9545 145.409 84.9545 144.182C84.9545 142.955 85.1761 141.894 85.6193 141C86.0625 140.106 86.6705 139.417 87.4432 138.932C88.2159 138.447 89.0985 138.205 90.0909 138.205C90.678 138.205 91.2292 138.29 91.7443 138.46C92.2633 138.631 92.7311 138.881 93.1477 139.21C93.5644 139.536 93.9129 139.934 94.1932 140.403C94.4735 140.869 94.6667 141.402 94.7727 142ZM97.7288 144.75V150H96.3879V138.364H97.7288V142.636H97.8424C98.047 142.186 98.3538 141.828 98.7629 141.562C99.1758 141.294 99.725 141.159 100.411 141.159C101.005 141.159 101.526 141.278 101.973 141.517C102.42 141.752 102.767 142.114 103.013 142.602C103.263 143.087 103.388 143.705 103.388 144.455V150H102.047V144.545C102.047 143.852 101.867 143.316 101.507 142.938C101.151 142.555 100.657 142.364 100.024 142.364C99.5849 142.364 99.1909 142.456 98.8424 142.642C98.4977 142.828 98.225 143.098 98.0243 143.455C97.8273 143.811 97.7288 144.242 97.7288 144.75ZM109.02 150.182C108.179 150.182 107.454 149.996 106.844 149.625C106.238 149.25 105.77 148.727 105.441 148.057C105.115 147.383 104.952 146.598 104.952 145.705C104.952 144.811 105.115 144.023 105.441 143.341C105.77 142.655 106.228 142.121 106.816 141.739C107.406 141.352 108.096 141.159 108.884 141.159C109.338 141.159 109.787 141.235 110.23 141.386C110.674 141.538 111.077 141.784 111.441 142.125C111.804 142.462 112.094 142.909 112.31 143.466C112.526 144.023 112.634 144.708 112.634 145.523V146.091H105.906V144.932H111.27C111.27 144.439 111.172 144 110.975 143.614C110.781 143.227 110.505 142.922 110.145 142.699C109.789 142.475 109.369 142.364 108.884 142.364C108.35 142.364 107.888 142.496 107.497 142.761C107.111 143.023 106.814 143.364 106.605 143.784C106.397 144.205 106.293 144.655 106.293 145.136V145.909C106.293 146.568 106.406 147.127 106.634 147.585C106.865 148.04 107.185 148.386 107.594 148.625C108.003 148.86 108.478 148.977 109.02 148.977C109.372 148.977 109.691 148.928 109.975 148.83C110.263 148.727 110.511 148.576 110.719 148.375C110.927 148.17 111.088 147.917 111.202 147.614L112.497 147.977C112.361 148.417 112.132 148.803 111.81 149.136C111.488 149.466 111.09 149.723 110.617 149.909C110.143 150.091 109.611 150.182 109.02 150.182ZM121.064 141.273L117.837 150H116.473L113.246 141.273H114.701L117.11 148.227H117.201L119.61 141.273H121.064ZM122.354 150V141.273H123.65V142.591H123.741C123.9 142.159 124.187 141.809 124.604 141.54C125.021 141.271 125.491 141.136 126.013 141.136C126.112 141.136 126.235 141.138 126.383 141.142C126.53 141.146 126.642 141.152 126.718 141.159V142.523C126.672 142.511 126.568 142.494 126.405 142.472C126.246 142.445 126.078 142.432 125.9 142.432C125.475 142.432 125.097 142.521 124.763 142.699C124.434 142.873 124.172 143.116 123.979 143.426C123.79 143.733 123.695 144.083 123.695 144.477V150H122.354ZM131.107 150.182C130.319 150.182 129.628 149.994 129.033 149.619C128.442 149.244 127.98 148.72 127.647 148.045C127.317 147.371 127.153 146.583 127.153 145.682C127.153 144.773 127.317 143.979 127.647 143.301C127.98 142.623 128.442 142.097 129.033 141.722C129.628 141.347 130.319 141.159 131.107 141.159C131.895 141.159 132.584 141.347 133.175 141.722C133.77 142.097 134.232 142.623 134.562 143.301C134.895 143.979 135.062 144.773 135.062 145.682C135.062 146.583 134.895 147.371 134.562 148.045C134.232 148.72 133.77 149.244 133.175 149.619C132.584 149.994 131.895 150.182 131.107 150.182ZM131.107 148.977C131.706 148.977 132.198 148.824 132.584 148.517C132.971 148.21 133.257 147.807 133.442 147.307C133.628 146.807 133.721 146.265 133.721 145.682C133.721 145.098 133.628 144.555 133.442 144.051C133.257 143.547 132.971 143.14 132.584 142.83C132.198 142.519 131.706 142.364 131.107 142.364C130.509 142.364 130.016 142.519 129.63 142.83C129.243 143.14 128.957 143.547 128.772 144.051C128.586 144.555 128.493 145.098 128.493 145.682C128.493 146.265 128.586 146.807 128.772 147.307C128.957 147.807 129.243 148.21 129.63 148.517C130.016 148.824 130.509 148.977 131.107 148.977ZM137.969 144.75V150H136.629V141.273H137.924V142.636H138.038C138.242 142.193 138.553 141.837 138.969 141.568C139.386 141.295 139.924 141.159 140.583 141.159C141.174 141.159 141.691 141.28 142.134 141.523C142.577 141.761 142.922 142.125 143.168 142.614C143.415 143.098 143.538 143.712 143.538 144.455V150H142.197V144.545C142.197 143.86 142.019 143.326 141.663 142.943C141.307 142.557 140.818 142.364 140.197 142.364C139.769 142.364 139.386 142.456 139.049 142.642C138.716 142.828 138.452 143.098 138.259 143.455C138.066 143.811 137.969 144.242 137.969 144.75Z"
    fill="white" />
  <path fill-rule="evenodd" clip-rule="evenodd"
    d="M42.6134 189.21C42.2211 188.905 41.6539 188.932 41.2934 189.293C40.9029 189.683 40.9029 190.317 41.2934 190.707L46.5863 196L41.2934 201.293L41.2102 201.387C40.9052 201.779 40.9329 202.347 41.2934 202.707C41.6839 203.098 42.3171 203.098 42.7076 202.707L48.0005 197.414L53.2934 202.707L53.3876 202.79C53.7799 203.095 54.3471 203.068 54.7076 202.707C55.0981 202.317 55.0981 201.683 54.7076 201.293L49.4147 196L54.7076 190.707L54.7908 190.613C55.0958 190.221 55.0681 189.653 54.7076 189.293C54.3171 188.902 53.6839 188.902 53.2934 189.293L48.0005 194.586L42.7076 189.293L42.6134 189.21Z"
    fill="white" />
  <path
    d="M94.7727 194H93.3636C93.2803 193.595 93.1345 193.239 92.9261 192.932C92.7216 192.625 92.4716 192.367 92.1761 192.159C91.8845 191.947 91.5606 191.788 91.2045 191.682C90.8485 191.576 90.4773 191.523 90.0909 191.523C89.3864 191.523 88.7481 191.701 88.1761 192.057C87.608 192.413 87.1553 192.938 86.8182 193.631C86.4848 194.324 86.3182 195.174 86.3182 196.182C86.3182 197.189 86.4848 198.04 86.8182 198.733C87.1553 199.426 87.608 199.951 88.1761 200.307C88.7481 200.663 89.3864 200.841 90.0909 200.841C90.4773 200.841 90.8485 200.788 91.2045 200.682C91.5606 200.576 91.8845 200.419 92.1761 200.21C92.4716 199.998 92.7216 199.739 92.9261 199.432C93.1345 199.121 93.2803 198.765 93.3636 198.364H94.7727C94.6667 198.958 94.4735 199.491 94.1932 199.96C93.9129 200.43 93.5644 200.83 93.1477 201.159C92.7311 201.485 92.2633 201.733 91.7443 201.903C91.2292 202.074 90.678 202.159 90.0909 202.159C89.0985 202.159 88.2159 201.917 87.4432 201.432C86.6705 200.947 86.0625 200.258 85.6193 199.364C85.1761 198.47 84.9545 197.409 84.9545 196.182C84.9545 194.955 85.1761 193.894 85.6193 193C86.0625 192.106 86.6705 191.417 87.4432 190.932C88.2159 190.447 89.0985 190.205 90.0909 190.205C90.678 190.205 91.2292 190.29 91.7443 190.46C92.2633 190.631 92.7311 190.881 93.1477 191.21C93.5644 191.536 93.9129 191.934 94.1932 192.403C94.4735 192.869 94.6667 193.402 94.7727 194ZM97.7288 190.364V202H96.3879V190.364H97.7288ZM103.25 202.182C102.462 202.182 101.771 201.994 101.176 201.619C100.585 201.244 100.123 200.72 99.79 200.045C99.4605 199.371 99.2957 198.583 99.2957 197.682C99.2957 196.773 99.4605 195.979 99.79 195.301C100.123 194.623 100.585 194.097 101.176 193.722C101.771 193.347 102.462 193.159 103.25 193.159C104.038 193.159 104.728 193.347 105.318 193.722C105.913 194.097 106.375 194.623 106.705 195.301C107.038 195.979 107.205 196.773 107.205 197.682C107.205 198.583 107.038 199.371 106.705 200.045C106.375 200.72 105.913 201.244 105.318 201.619C104.728 201.994 104.038 202.182 103.25 202.182ZM103.25 200.977C103.849 200.977 104.341 200.824 104.727 200.517C105.114 200.21 105.4 199.807 105.585 199.307C105.771 198.807 105.864 198.265 105.864 197.682C105.864 197.098 105.771 196.555 105.585 196.051C105.4 195.547 105.114 195.14 104.727 194.83C104.341 194.519 103.849 194.364 103.25 194.364C102.652 194.364 102.159 194.519 101.773 194.83C101.387 195.14 101.101 195.547 100.915 196.051C100.729 196.555 100.637 197.098 100.637 197.682C100.637 198.265 100.729 198.807 100.915 199.307C101.101 199.807 101.387 200.21 101.773 200.517C102.159 200.824 102.652 200.977 103.25 200.977ZM114.953 195.227L113.749 195.568C113.673 195.367 113.561 195.172 113.414 194.983C113.27 194.79 113.073 194.631 112.823 194.506C112.573 194.381 112.253 194.318 111.863 194.318C111.328 194.318 110.883 194.441 110.527 194.688C110.175 194.93 109.999 195.239 109.999 195.614C109.999 195.947 110.12 196.21 110.363 196.403C110.605 196.597 110.984 196.758 111.499 196.886L112.794 197.205C113.575 197.394 114.156 197.684 114.539 198.074C114.921 198.46 115.113 198.958 115.113 199.568C115.113 200.068 114.969 200.515 114.681 200.909C114.397 201.303 113.999 201.614 113.488 201.841C112.976 202.068 112.381 202.182 111.703 202.182C110.813 202.182 110.077 201.989 109.493 201.602C108.91 201.216 108.541 200.652 108.385 199.909L109.658 199.591C109.779 200.061 110.008 200.413 110.346 200.648C110.686 200.883 111.131 201 111.681 201C112.306 201 112.802 200.867 113.169 200.602C113.541 200.333 113.726 200.011 113.726 199.636C113.726 199.333 113.62 199.08 113.408 198.875C113.196 198.667 112.87 198.511 112.431 198.409L110.976 198.068C110.177 197.879 109.59 197.585 109.215 197.188C108.844 196.786 108.658 196.284 108.658 195.682C108.658 195.189 108.796 194.754 109.073 194.375C109.353 193.996 109.734 193.699 110.215 193.483C110.7 193.267 111.249 193.159 111.863 193.159C112.726 193.159 113.404 193.348 113.897 193.727C114.393 194.106 114.745 194.606 114.953 195.227ZM120.31 202.182C119.469 202.182 118.744 201.996 118.134 201.625C117.528 201.25 117.06 200.727 116.731 200.057C116.405 199.383 116.242 198.598 116.242 197.705C116.242 196.811 116.405 196.023 116.731 195.341C117.06 194.655 117.518 194.121 118.106 193.739C118.696 193.352 119.386 193.159 120.174 193.159C120.628 193.159 121.077 193.235 121.52 193.386C121.964 193.538 122.367 193.784 122.731 194.125C123.094 194.462 123.384 194.909 123.6 195.466C123.816 196.023 123.924 196.708 123.924 197.523V198.091H117.196V196.932H122.56C122.56 196.439 122.462 196 122.265 195.614C122.071 195.227 121.795 194.922 121.435 194.699C121.079 194.475 120.659 194.364 120.174 194.364C119.64 194.364 119.178 194.496 118.787 194.761C118.401 195.023 118.104 195.364 117.895 195.784C117.687 196.205 117.583 196.655 117.583 197.136V197.909C117.583 198.568 117.696 199.127 117.924 199.585C118.155 200.04 118.475 200.386 118.884 200.625C119.293 200.86 119.768 200.977 120.31 200.977C120.662 200.977 120.981 200.928 121.265 200.83C121.553 200.727 121.801 200.576 122.009 200.375C122.217 200.17 122.378 199.917 122.492 199.614L123.787 199.977C123.651 200.417 123.422 200.803 123.1 201.136C122.778 201.466 122.38 201.723 121.907 201.909C121.433 202.091 120.901 202.182 120.31 202.182Z"
    fill="white" />
  <path
    d="M85.4091 254V242.364H92.4318V243.614H86.8182V247.545H92.0682V248.795H86.8182V252.75H92.5227V254H85.4091ZM97.6052 254.182C96.878 254.182 96.2359 253.998 95.6791 253.631C95.1223 253.259 94.6867 252.737 94.3723 252.062C94.0579 251.384 93.9007 250.583 93.9007 249.659C93.9007 248.742 94.0579 247.947 94.3723 247.273C94.6867 246.598 95.1242 246.078 95.6848 245.71C96.2454 245.343 96.8931 245.159 97.628 245.159C98.1961 245.159 98.645 245.254 98.9745 245.443C99.3079 245.629 99.5617 245.841 99.7359 246.08C99.9139 246.314 100.052 246.508 100.151 246.659H100.264V242.364H101.605V254H100.31V252.659H100.151C100.052 252.818 99.912 253.019 99.7302 253.261C99.5484 253.5 99.2889 253.714 98.9518 253.903C98.6147 254.089 98.1658 254.182 97.6052 254.182ZM97.787 252.977C98.3249 252.977 98.7795 252.837 99.1507 252.557C99.5219 252.273 99.8041 251.881 99.9973 251.381C100.19 250.877 100.287 250.295 100.287 249.636C100.287 248.985 100.192 248.415 100.003 247.926C99.8136 247.434 99.5333 247.051 99.162 246.778C98.7908 246.502 98.3325 246.364 97.787 246.364C97.2189 246.364 96.7454 246.509 96.3666 246.801C95.9916 247.089 95.7094 247.481 95.52 247.977C95.3344 248.47 95.2416 249.023 95.2416 249.636C95.2416 250.258 95.3363 250.822 95.5257 251.33C95.7189 251.833 96.003 252.235 96.378 252.534C96.7567 252.83 97.2264 252.977 97.787 252.977ZM103.767 254V245.273H105.108V254H103.767ZM104.449 243.818C104.188 243.818 103.962 243.729 103.773 243.551C103.587 243.373 103.495 243.159 103.495 242.909C103.495 242.659 103.587 242.445 103.773 242.267C103.962 242.089 104.188 242 104.449 242C104.71 242 104.934 242.089 105.12 242.267C105.309 242.445 105.404 242.659 105.404 242.909C105.404 243.159 105.309 243.373 105.12 243.551C104.934 243.729 104.71 243.818 104.449 243.818ZM110.88 245.273V246.409H106.357V245.273H110.88ZM107.675 243.182H109.016V251.5C109.016 251.879 109.071 252.163 109.181 252.352C109.294 252.538 109.438 252.663 109.613 252.727C109.791 252.788 109.978 252.818 110.175 252.818C110.323 252.818 110.444 252.811 110.539 252.795C110.633 252.777 110.709 252.761 110.766 252.75L111.039 253.955C110.948 253.989 110.821 254.023 110.658 254.057C110.495 254.095 110.289 254.114 110.039 254.114C109.66 254.114 109.289 254.032 108.925 253.869C108.565 253.706 108.266 253.458 108.027 253.125C107.792 252.792 107.675 252.371 107.675 251.864V243.182Z"
    fill="white" />
  <path
    d="M40 257C40 256.448 40.4477 256 41 256H55C55.5523 256 56 256.448 56 257C56 257.552 55.5523 258 55 258H41C40.4477 258 40 257.552 40 257Z"
    fill="white" />
  <path fill-rule="evenodd" clip-rule="evenodd"
    d="M48.4118 239.174C49.9739 237.612 52.5066 237.612 54.0687 239.175L54.826 239.932C56.3881 241.494 56.3881 244.027 54.826 245.589L47.9199 252.495C47.6425 252.772 47.2896 252.962 46.9051 253.04L42.4016 253.958C40.997 254.244 39.7562 253.004 40.0424 251.599L40.9602 247.095C41.0386 246.711 41.2283 246.358 41.5057 246.081L48.4118 239.174ZM52.6545 240.589C51.8734 239.808 50.6071 239.808 49.826 240.589L49.4144 241L53.0002 244.586L53.4118 244.175C54.1929 243.393 54.1929 242.127 53.4118 241.346L52.6545 240.589ZM44.4144 246L48.0002 242.415L51.586 246L48.0002 249.586L44.4144 246ZM43.0002 247.415L42.9199 247.495L42.0021 251.998L46.5057 251.081L46.5859 251L43.0002 247.415Z"
    fill="white" />
  <path fill-rule="evenodd" clip-rule="evenodd"
    d="M38.2936 290.293C38.6541 289.932 39.2213 289.905 39.6136 290.21L39.7078 290.293L53.9831 304.568C54.039 304.613 54.0907 304.664 54.1371 304.722L57.7078 308.293C58.0984 308.683 58.0984 309.317 57.7078 309.707C57.3474 310.068 56.7801 310.095 56.3878 309.79L56.2936 309.707L53.2067 306.62C51.6027 307.538 49.863 308 48.0007 308C43.6051 308 39.9642 305.451 37.1325 300.496C36.9568 300.189 36.9568 299.811 37.1326 299.504C38.3234 297.42 39.6534 295.764 41.1277 294.541L38.2936 291.707C37.9031 291.317 37.9031 290.683 38.2936 290.293ZM42.5492 295.963C41.41 296.875 40.3466 298.11 39.3624 299.673L39.1617 300L39.2793 300.194C41.6307 303.993 44.4262 305.89 47.7097 305.995L48.0007 306C49.3266 306 50.565 305.715 51.7287 305.142L49.2953 302.709C48.1791 303.243 46.8008 303.048 45.8763 302.123C44.9524 301.198 44.7577 299.821 45.292 298.705L42.5492 295.963ZM47.2356 300.649L47.3517 300.765C47.3309 300.748 47.3107 300.729 47.2911 300.709C47.2716 300.69 47.2531 300.67 47.2356 300.649ZM47.9998 292C52.3954 292 56.0364 294.548 58.8681 299.504C59.0438 299.811 59.0438 300.189 58.868 300.496C58.0532 301.922 57.1752 303.145 56.2312 304.167C55.8563 304.572 55.2237 304.597 54.8181 304.222C54.4125 303.847 54.3876 303.215 54.7625 302.809C55.4128 302.106 56.0354 301.283 56.6295 300.341L56.8388 300L56.7213 299.806C54.3698 296.006 51.5741 294.11 48.2876 294.004L47.9964 294C47.1987 293.997 46.4047 294.107 45.6379 294.326C45.1069 294.478 44.5533 294.171 44.4014 293.64C44.2495 293.109 44.5568 292.555 45.0878 292.403C46.0357 292.132 47.0173 291.996 47.9998 292Z"
    fill="white" />
  <path
    d="M85.4091 306V294.364H92.4318V295.614H86.8182V299.545H92.0682V300.795H86.8182V304.75H92.5227V306H85.4091ZM95.1734 309.273C94.9461 309.273 94.7435 309.254 94.5655 309.216C94.3874 309.182 94.2643 309.148 94.1961 309.114L94.537 307.932C94.8628 308.015 95.1507 308.045 95.4007 308.023C95.6507 308 95.8723 307.888 96.0655 307.688C96.2624 307.491 96.4423 307.17 96.6052 306.727L96.8552 306.045L93.628 297.273H95.0825L97.4916 304.227H97.5825L99.9916 297.273H101.446L97.7416 307.273C97.5749 307.723 97.3685 308.097 97.1223 308.392C96.8761 308.691 96.5901 308.913 96.2643 309.057C95.9423 309.201 95.5787 309.273 95.1734 309.273ZM106.083 306.182C105.242 306.182 104.516 305.996 103.906 305.625C103.3 305.25 102.833 304.727 102.503 304.057C102.177 303.383 102.014 302.598 102.014 301.705C102.014 300.811 102.177 300.023 102.503 299.341C102.833 298.655 103.291 298.121 103.878 297.739C104.469 297.352 105.158 297.159 105.946 297.159C106.401 297.159 106.85 297.235 107.293 297.386C107.736 297.538 108.139 297.784 108.503 298.125C108.867 298.462 109.156 298.909 109.372 299.466C109.588 300.023 109.696 300.708 109.696 301.523V302.091H102.969V300.932H108.333C108.333 300.439 108.234 300 108.037 299.614C107.844 299.227 107.567 298.922 107.208 298.699C106.852 298.475 106.431 298.364 105.946 298.364C105.412 298.364 104.95 298.496 104.56 298.761C104.174 299.023 103.876 299.364 103.668 299.784C103.46 300.205 103.355 300.655 103.355 301.136V301.909C103.355 302.568 103.469 303.127 103.696 303.585C103.927 304.04 104.247 304.386 104.656 304.625C105.066 304.86 105.541 304.977 106.083 304.977C106.435 304.977 106.753 304.928 107.037 304.83C107.325 304.727 107.573 304.576 107.781 304.375C107.99 304.17 108.151 303.917 108.264 303.614L109.56 303.977C109.424 304.417 109.194 304.803 108.872 305.136C108.55 305.466 108.153 305.723 107.679 305.909C107.206 306.091 106.674 306.182 106.083 306.182ZM124.821 298H123.412C123.329 297.595 123.183 297.239 122.975 296.932C122.77 296.625 122.52 296.367 122.225 296.159C121.933 295.947 121.609 295.788 121.253 295.682C120.897 295.576 120.526 295.523 120.14 295.523C119.435 295.523 118.797 295.701 118.225 296.057C117.657 296.413 117.204 296.938 116.867 297.631C116.534 298.324 116.367 299.174 116.367 300.182C116.367 301.189 116.534 302.04 116.867 302.733C117.204 303.426 117.657 303.951 118.225 304.307C118.797 304.663 119.435 304.841 120.14 304.841C120.526 304.841 120.897 304.788 121.253 304.682C121.609 304.576 121.933 304.419 122.225 304.21C122.52 303.998 122.77 303.739 122.975 303.432C123.183 303.121 123.329 302.765 123.412 302.364H124.821C124.715 302.958 124.522 303.491 124.242 303.96C123.962 304.43 123.613 304.83 123.196 305.159C122.78 305.485 122.312 305.733 121.793 305.903C121.278 306.074 120.727 306.159 120.14 306.159C119.147 306.159 118.265 305.917 117.492 305.432C116.719 304.947 116.111 304.258 115.668 303.364C115.225 302.47 115.003 301.409 115.003 300.182C115.003 298.955 115.225 297.894 115.668 297C116.111 296.106 116.719 295.417 117.492 294.932C118.265 294.447 119.147 294.205 120.14 294.205C120.727 294.205 121.278 294.29 121.793 294.46C122.312 294.631 122.78 294.881 123.196 295.21C123.613 295.536 123.962 295.934 124.242 296.403C124.522 296.869 124.715 297.402 124.821 298ZM127.778 294.364V306H126.437V294.364H127.778ZM133.299 306.182C132.511 306.182 131.82 305.994 131.225 305.619C130.634 305.244 130.172 304.72 129.839 304.045C129.509 303.371 129.344 302.583 129.344 301.682C129.344 300.773 129.509 299.979 129.839 299.301C130.172 298.623 130.634 298.097 131.225 297.722C131.82 297.347 132.511 297.159 133.299 297.159C134.087 297.159 134.776 297.347 135.367 297.722C135.962 298.097 136.424 298.623 136.754 299.301C137.087 299.979 137.254 300.773 137.254 301.682C137.254 302.583 137.087 303.371 136.754 304.045C136.424 304.72 135.962 305.244 135.367 305.619C134.776 305.994 134.087 306.182 133.299 306.182ZM133.299 304.977C133.897 304.977 134.39 304.824 134.776 304.517C135.163 304.21 135.449 303.807 135.634 303.307C135.82 302.807 135.913 302.265 135.913 301.682C135.913 301.098 135.82 300.555 135.634 300.051C135.449 299.547 135.163 299.14 134.776 298.83C134.39 298.519 133.897 298.364 133.299 298.364C132.7 298.364 132.208 298.519 131.822 298.83C131.435 299.14 131.149 299.547 130.964 300.051C130.778 300.555 130.685 301.098 130.685 301.682C130.685 302.265 130.778 302.807 130.964 303.307C131.149 303.807 131.435 304.21 131.822 304.517C132.208 304.824 132.7 304.977 133.299 304.977ZM145.002 299.227L143.798 299.568C143.722 299.367 143.61 299.172 143.462 298.983C143.319 298.79 143.122 298.631 142.872 298.506C142.622 298.381 142.301 298.318 141.911 298.318C141.377 298.318 140.932 298.441 140.576 298.688C140.224 298.93 140.048 299.239 140.048 299.614C140.048 299.947 140.169 300.21 140.411 300.403C140.654 300.597 141.033 300.758 141.548 300.886L142.843 301.205C143.623 301.394 144.205 301.684 144.587 302.074C144.97 302.46 145.161 302.958 145.161 303.568C145.161 304.068 145.017 304.515 144.729 304.909C144.445 305.303 144.048 305.614 143.536 305.841C143.025 306.068 142.43 306.182 141.752 306.182C140.862 306.182 140.125 305.989 139.542 305.602C138.959 305.216 138.589 304.652 138.434 303.909L139.707 303.591C139.828 304.061 140.057 304.413 140.394 304.648C140.735 304.883 141.18 305 141.729 305C142.354 305 142.851 304.867 143.218 304.602C143.589 304.333 143.775 304.011 143.775 303.636C143.775 303.333 143.669 303.08 143.457 302.875C143.245 302.667 142.919 302.511 142.479 302.409L141.025 302.068C140.226 301.879 139.639 301.585 139.264 301.188C138.892 300.786 138.707 300.284 138.707 299.682C138.707 299.189 138.845 298.754 139.122 298.375C139.402 297.996 139.783 297.699 140.264 297.483C140.748 297.267 141.298 297.159 141.911 297.159C142.775 297.159 143.453 297.348 143.945 297.727C144.442 298.106 144.794 298.606 145.002 299.227ZM150.359 306.182C149.518 306.182 148.793 305.996 148.183 305.625C147.577 305.25 147.109 304.727 146.779 304.057C146.454 303.383 146.291 302.598 146.291 301.705C146.291 300.811 146.454 300.023 146.779 299.341C147.109 298.655 147.567 298.121 148.154 297.739C148.745 297.352 149.435 297.159 150.222 297.159C150.677 297.159 151.126 297.235 151.569 297.386C152.012 297.538 152.416 297.784 152.779 298.125C153.143 298.462 153.433 298.909 153.649 299.466C153.865 300.023 153.972 300.708 153.972 301.523V302.091H147.245V300.932H152.609C152.609 300.439 152.51 300 152.313 299.614C152.12 299.227 151.844 298.922 151.484 298.699C151.128 298.475 150.707 298.364 150.222 298.364C149.688 298.364 149.226 298.496 148.836 298.761C148.45 299.023 148.152 299.364 147.944 299.784C147.736 300.205 147.632 300.655 147.632 301.136V301.909C147.632 302.568 147.745 303.127 147.972 303.585C148.204 304.04 148.524 304.386 148.933 304.625C149.342 304.86 149.817 304.977 150.359 304.977C150.711 304.977 151.029 304.928 151.313 304.83C151.601 304.727 151.849 304.576 152.058 304.375C152.266 304.17 152.427 303.917 152.541 303.614L153.836 303.977C153.7 304.417 153.471 304.803 153.149 305.136C152.827 305.466 152.429 305.723 151.955 305.909C151.482 306.091 150.95 306.182 150.359 306.182ZM158.828 306.182C158.1 306.182 157.458 305.998 156.902 305.631C156.345 305.259 155.909 304.737 155.595 304.062C155.28 303.384 155.123 302.583 155.123 301.659C155.123 300.742 155.28 299.947 155.595 299.273C155.909 298.598 156.347 298.078 156.907 297.71C157.468 297.343 158.116 297.159 158.85 297.159C159.419 297.159 159.868 297.254 160.197 297.443C160.53 297.629 160.784 297.841 160.958 298.08C161.136 298.314 161.275 298.508 161.373 298.659H161.487V294.364H162.828V306H161.532V304.659H161.373C161.275 304.818 161.135 305.019 160.953 305.261C160.771 305.5 160.511 305.714 160.174 305.903C159.837 306.089 159.388 306.182 158.828 306.182ZM159.01 304.977C159.547 304.977 160.002 304.837 160.373 304.557C160.744 304.273 161.027 303.881 161.22 303.381C161.413 302.877 161.51 302.295 161.51 301.636C161.51 300.985 161.415 300.415 161.225 299.926C161.036 299.434 160.756 299.051 160.385 298.778C160.013 298.502 159.555 298.364 159.01 298.364C158.441 298.364 157.968 298.509 157.589 298.801C157.214 299.089 156.932 299.481 156.743 299.977C156.557 300.47 156.464 301.023 156.464 301.636C156.464 302.258 156.559 302.822 156.748 303.33C156.941 303.833 157.225 304.235 157.6 304.534C157.979 304.83 158.449 304.977 159.01 304.977Z"
    fill="white" />
  <path fill-rule="evenodd" clip-rule="evenodd"
    d="M50.9949 345.824C50.9037 344.249 49.5977 343 48 343H41L40.8237 343.005C39.2489 343.096 38 344.402 38 346V358L38.0051 358.176C38.0963 359.751 39.4023 361 41 361H48L48.1763 360.995C49.7511 360.904 51 359.598 51 358V356L50.9933 355.883C50.9355 355.386 50.5128 355 50 355C49.4477 355 49 355.448 49 356V358L48.9933 358.117C48.9355 358.614 48.5128 359 48 359H41L40.8834 358.993C40.386 358.936 40 358.513 40 358V346L40.0067 345.883C40.0645 345.386 40.4872 345 41 345H48L48.1166 345.007C48.614 345.064 49 345.487 49 346V348L49.0067 348.117C49.0645 348.614 49.4872 349 50 349C50.5523 349 51 348.552 51 348V346L50.9949 345.824ZM54.7071 348.293L54.6129 348.21L54.5114 348.14C54.1275 347.912 53.6233 347.962 53.2929 348.293L53.2097 348.387C52.9047 348.779 52.9324 349.347 53.2929 349.707L54.585 351H43L42.8834 351.007C42.386 351.064 42 351.487 42 352C42 352.552 42.4477 353 43 353H54.584L53.2929 354.293L53.2097 354.387C52.9047 354.779 52.9324 355.347 53.2929 355.707C53.6834 356.098 54.3166 356.098 54.7071 355.707L57.6663 352.749C57.7702 352.655 57.8527 352.541 57.9101 352.415L57.9506 352.311L57.9871 352.165C58.0387 351.868 57.9589 351.545 57.7071 351.293L54.7071 348.293Z"
    fill="white" />
  <path
    d="M85.4091 358V346.364H86.8182V356.75H92.2273V358H85.4091ZM97.2927 358.182C96.5048 358.182 95.8136 357.994 95.2189 357.619C94.628 357.244 94.1658 356.72 93.8325 356.045C93.503 355.371 93.3382 354.583 93.3382 353.682C93.3382 352.773 93.503 351.979 93.8325 351.301C94.1658 350.623 94.628 350.097 95.2189 349.722C95.8136 349.347 96.5048 349.159 97.2927 349.159C98.0806 349.159 98.77 349.347 99.3609 349.722C99.9556 350.097 100.418 350.623 100.747 351.301C101.081 351.979 101.247 352.773 101.247 353.682C101.247 354.583 101.081 355.371 100.747 356.045C100.418 356.72 99.9556 357.244 99.3609 357.619C98.77 357.994 98.0806 358.182 97.2927 358.182ZM97.2927 356.977C97.8912 356.977 98.3836 356.824 98.77 356.517C99.1564 356.21 99.4423 355.807 99.628 355.307C99.8136 354.807 99.9064 354.265 99.9064 353.682C99.9064 353.098 99.8136 352.555 99.628 352.051C99.4423 351.547 99.1564 351.14 98.77 350.83C98.3836 350.519 97.8912 350.364 97.2927 350.364C96.6942 350.364 96.2018 350.519 95.8155 350.83C95.4291 351.14 95.1431 351.547 94.9575 352.051C94.7719 352.555 94.6791 353.098 94.6791 353.682C94.6791 354.265 94.7719 354.807 94.9575 355.307C95.1431 355.807 95.4291 356.21 95.8155 356.517C96.2018 356.824 96.6942 356.977 97.2927 356.977ZM106.337 361.455C105.689 361.455 105.132 361.371 104.666 361.205C104.201 361.042 103.812 360.826 103.502 360.557C103.195 360.292 102.951 360.008 102.769 359.705L103.837 358.955C103.958 359.114 104.111 359.295 104.297 359.5C104.483 359.708 104.736 359.888 105.058 360.04C105.384 360.195 105.81 360.273 106.337 360.273C107.041 360.273 107.623 360.102 108.081 359.761C108.54 359.42 108.769 358.886 108.769 358.159V356.386H108.655C108.557 356.545 108.416 356.742 108.235 356.977C108.057 357.208 107.799 357.415 107.462 357.597C107.129 357.775 106.678 357.864 106.11 357.864C105.405 357.864 104.772 357.697 104.212 357.364C103.655 357.03 103.214 356.545 102.888 355.909C102.566 355.273 102.405 354.5 102.405 353.591C102.405 352.697 102.562 351.919 102.877 351.256C103.191 350.589 103.629 350.074 104.189 349.71C104.75 349.343 105.397 349.159 106.132 349.159C106.701 349.159 107.151 349.254 107.485 349.443C107.822 349.629 108.079 349.841 108.257 350.08C108.439 350.314 108.579 350.508 108.678 350.659H108.814V349.273H110.11V358.25C110.11 359 109.939 359.61 109.598 360.08C109.261 360.553 108.807 360.9 108.235 361.119C107.666 361.343 107.034 361.455 106.337 361.455ZM106.291 356.659C106.829 356.659 107.284 356.536 107.655 356.29C108.026 356.044 108.308 355.689 108.502 355.227C108.695 354.765 108.791 354.212 108.791 353.568C108.791 352.939 108.697 352.384 108.507 351.903C108.318 351.422 108.038 351.045 107.666 350.773C107.295 350.5 106.837 350.364 106.291 350.364C105.723 350.364 105.25 350.508 104.871 350.795C104.496 351.083 104.214 351.47 104.024 351.955C103.839 352.439 103.746 352.977 103.746 353.568C103.746 354.174 103.841 354.71 104.03 355.176C104.223 355.638 104.507 356.002 104.882 356.267C105.261 356.528 105.731 356.659 106.291 356.659ZM126.104 352.182C126.104 353.409 125.883 354.47 125.439 355.364C124.996 356.258 124.388 356.947 123.616 357.432C122.843 357.917 121.96 358.159 120.968 358.159C119.975 358.159 119.093 357.917 118.32 357.432C117.547 356.947 116.939 356.258 116.496 355.364C116.053 354.47 115.831 353.409 115.831 352.182C115.831 350.955 116.053 349.894 116.496 349C116.939 348.106 117.547 347.417 118.32 346.932C119.093 346.447 119.975 346.205 120.968 346.205C121.96 346.205 122.843 346.447 123.616 346.932C124.388 347.417 124.996 348.106 125.439 349C125.883 349.894 126.104 350.955 126.104 352.182ZM124.741 352.182C124.741 351.174 124.572 350.324 124.235 349.631C123.901 348.938 123.449 348.413 122.877 348.057C122.309 347.701 121.672 347.523 120.968 347.523C120.263 347.523 119.625 347.701 119.053 348.057C118.485 348.413 118.032 348.938 117.695 349.631C117.362 350.324 117.195 351.174 117.195 352.182C117.195 353.189 117.362 354.04 117.695 354.733C118.032 355.426 118.485 355.951 119.053 356.307C119.625 356.663 120.263 356.841 120.968 356.841C121.672 356.841 122.309 356.663 122.877 356.307C123.449 355.951 123.901 355.426 124.235 354.733C124.572 354.04 124.741 353.189 124.741 352.182ZM133.312 354.432V349.273H134.653V358H133.312V356.523H133.221C133.016 356.966 132.698 357.343 132.266 357.653C131.834 357.96 131.289 358.114 130.63 358.114C130.084 358.114 129.6 357.994 129.175 357.756C128.751 357.513 128.418 357.15 128.175 356.665C127.933 356.176 127.812 355.561 127.812 354.818V349.273H129.153V354.727C129.153 355.364 129.331 355.871 129.687 356.25C130.046 356.629 130.505 356.818 131.062 356.818C131.395 356.818 131.734 356.733 132.079 356.562C132.427 356.392 132.719 356.131 132.954 355.778C133.192 355.426 133.312 354.977 133.312 354.432ZM140.424 349.273V350.409H135.901V349.273H140.424ZM137.219 347.182H138.56V355.5C138.56 355.879 138.615 356.163 138.725 356.352C138.839 356.538 138.983 356.663 139.157 356.727C139.335 356.788 139.522 356.818 139.719 356.818C139.867 356.818 139.988 356.811 140.083 356.795C140.178 356.777 140.254 356.761 140.31 356.75L140.583 357.955C140.492 357.989 140.365 358.023 140.202 358.057C140.04 358.095 139.833 358.114 139.583 358.114C139.204 358.114 138.833 358.032 138.469 357.869C138.11 357.706 137.81 357.458 137.572 357.125C137.337 356.792 137.219 356.371 137.219 355.864V347.182Z"
    fill="white" />
  <path
    d="M85.4091 398.364H87.0909L91.0455 408.023H91.1818L95.1364 398.364H96.8182V410H95.5V401.159H95.3864L91.75 410H90.4773L86.8409 401.159H86.7273V410H85.4091V398.364ZM98.9816 410V401.273H100.323V410H98.9816ZM99.6635 399.818C99.4021 399.818 99.1767 399.729 98.9873 399.551C98.8017 399.373 98.7089 399.159 98.7089 398.909C98.7089 398.659 98.8017 398.445 98.9873 398.267C99.1767 398.089 99.4021 398 99.6635 398C99.9248 398 100.148 398.089 100.334 398.267C100.523 398.445 100.618 398.659 100.618 398.909C100.618 399.159 100.523 399.373 100.334 399.551C100.148 399.729 99.9248 399.818 99.6635 399.818ZM103.639 404.75V410H102.299V401.273H103.594V402.636H103.708C103.912 402.193 104.223 401.837 104.639 401.568C105.056 401.295 105.594 401.159 106.253 401.159C106.844 401.159 107.361 401.28 107.804 401.523C108.247 401.761 108.592 402.125 108.838 402.614C109.085 403.098 109.208 403.712 109.208 404.455V410H107.867V404.545C107.867 403.86 107.689 403.326 107.333 402.943C106.977 402.557 106.488 402.364 105.867 402.364C105.439 402.364 105.056 402.456 104.719 402.642C104.386 402.828 104.122 403.098 103.929 403.455C103.736 403.811 103.639 404.242 103.639 404.75ZM116.678 406.432V401.273H118.019V410H116.678V408.523H116.587C116.382 408.966 116.064 409.343 115.632 409.653C115.201 409.96 114.655 410.114 113.996 410.114C113.451 410.114 112.966 409.994 112.542 409.756C112.117 409.513 111.784 409.15 111.542 408.665C111.299 408.176 111.178 407.561 111.178 406.818V401.273H112.519V406.727C112.519 407.364 112.697 407.871 113.053 408.25C113.413 408.629 113.871 408.818 114.428 408.818C114.761 408.818 115.1 408.733 115.445 408.562C115.793 408.392 116.085 408.131 116.32 407.778C116.559 407.426 116.678 406.977 116.678 406.432ZM126.177 403.227L124.972 403.568C124.896 403.367 124.785 403.172 124.637 402.983C124.493 402.79 124.296 402.631 124.046 402.506C123.796 402.381 123.476 402.318 123.086 402.318C122.552 402.318 122.107 402.441 121.75 402.688C121.398 402.93 121.222 403.239 121.222 403.614C121.222 403.947 121.343 404.21 121.586 404.403C121.828 404.597 122.207 404.758 122.722 404.886L124.018 405.205C124.798 405.394 125.379 405.684 125.762 406.074C126.144 406.46 126.336 406.958 126.336 407.568C126.336 408.068 126.192 408.515 125.904 408.909C125.62 409.303 125.222 409.614 124.711 409.841C124.199 410.068 123.605 410.182 122.927 410.182C122.036 410.182 121.3 409.989 120.716 409.602C120.133 409.216 119.764 408.652 119.608 407.909L120.881 407.591C121.002 408.061 121.232 408.413 121.569 408.648C121.91 408.883 122.355 409 122.904 409C123.529 409 124.025 408.867 124.393 408.602C124.764 408.333 124.949 408.011 124.949 407.636C124.949 407.333 124.843 407.08 124.631 406.875C124.419 406.667 124.093 406.511 123.654 406.409L122.199 406.068C121.4 405.879 120.813 405.585 120.438 405.188C120.067 404.786 119.881 404.284 119.881 403.682C119.881 403.189 120.019 402.754 120.296 402.375C120.576 401.996 120.957 401.699 121.438 401.483C121.923 401.267 122.472 401.159 123.086 401.159C123.949 401.159 124.627 401.348 125.12 401.727C125.616 402.106 125.968 402.606 126.177 403.227Z"
    fill="white" />
  <path fill-rule="evenodd" clip-rule="evenodd"
    d="M55 403C55.5523 403 56 403.448 56 404C56 404.513 55.614 404.936 55.1166 404.993L55 405H41C40.4477 405 40 404.552 40 404C40 403.487 40.386 403.064 40.8834 403.007L41 403H55Z"
    fill="white" />
  <path fill-rule="evenodd" clip-rule="evenodd"
    d="M48.9933 448.883C48.9355 448.386 48.5128 448 48 448C47.4477 448 47 448.448 47 449V455H41L40.8834 455.007C40.386 455.064 40 455.487 40 456C40 456.552 40.4477 457 41 457H47V463L47.0067 463.117C47.0645 463.614 47.4872 464 48 464C48.5523 464 49 463.552 49 463V457H55L55.1166 456.993C55.614 456.936 56 456.513 56 456C56 455.448 55.5523 455 55 455H49V449L48.9933 448.883Z"
    fill="white" />
  <path
    d="M85.4091 462V450.364H89.3409C90.2538 450.364 91 450.528 91.5795 450.858C92.1629 451.184 92.5947 451.625 92.875 452.182C93.1553 452.739 93.2955 453.36 93.2955 454.045C93.2955 454.731 93.1553 455.354 92.875 455.915C92.5985 456.475 92.1705 456.922 91.5909 457.256C91.0114 457.585 90.2689 457.75 89.3636 457.75H86.5455V456.5H89.3182C89.9432 456.5 90.4451 456.392 90.8239 456.176C91.2027 455.96 91.4773 455.669 91.6477 455.301C91.822 454.93 91.9091 454.511 91.9091 454.045C91.9091 453.58 91.822 453.163 91.6477 452.795C91.4773 452.428 91.2008 452.14 90.8182 451.932C90.4356 451.72 89.928 451.614 89.2955 451.614H86.8182V462H85.4091ZM96.2444 450.364V462H94.9035V450.364H96.2444ZM103.72 458.432V453.273H105.061V462H103.72V460.523H103.629C103.425 460.966 103.107 461.343 102.675 461.653C102.243 461.96 101.698 462.114 101.039 462.114C100.493 462.114 100.008 461.994 99.584 461.756C99.1598 461.513 98.8265 461.15 98.584 460.665C98.3416 460.176 98.2204 459.561 98.2204 458.818V453.273H99.5613V458.727C99.5613 459.364 99.7393 459.871 100.095 460.25C100.455 460.629 100.914 460.818 101.47 460.818C101.804 460.818 102.143 460.733 102.487 460.562C102.836 460.392 103.128 460.131 103.362 459.778C103.601 459.426 103.72 458.977 103.72 458.432ZM113.219 455.227L112.015 455.568C111.939 455.367 111.827 455.172 111.679 454.983C111.535 454.79 111.338 454.631 111.088 454.506C110.838 454.381 110.518 454.318 110.128 454.318C109.594 454.318 109.149 454.441 108.793 454.688C108.441 454.93 108.265 455.239 108.265 455.614C108.265 455.947 108.386 456.21 108.628 456.403C108.871 456.597 109.249 456.758 109.765 456.886L111.06 457.205C111.84 457.394 112.422 457.684 112.804 458.074C113.187 458.46 113.378 458.958 113.378 459.568C113.378 460.068 113.234 460.515 112.946 460.909C112.662 461.303 112.265 461.614 111.753 461.841C111.242 462.068 110.647 462.182 109.969 462.182C109.079 462.182 108.342 461.989 107.759 461.602C107.176 461.216 106.806 460.652 106.651 459.909L107.924 459.591C108.045 460.061 108.274 460.413 108.611 460.648C108.952 460.883 109.397 461 109.946 461C110.571 461 111.068 460.867 111.435 460.602C111.806 460.333 111.992 460.011 111.992 459.636C111.992 459.333 111.886 459.08 111.674 458.875C111.462 458.667 111.136 458.511 110.696 458.409L109.242 458.068C108.443 457.879 107.855 457.585 107.48 457.188C107.109 456.786 106.924 456.284 106.924 455.682C106.924 455.189 107.062 454.754 107.338 454.375C107.619 453.996 107.999 453.699 108.48 453.483C108.965 453.267 109.515 453.159 110.128 453.159C110.992 453.159 111.67 453.348 112.162 453.727C112.658 454.106 113.011 454.606 113.219 455.227Z"
    fill="white" />
  <path
    d="M87.6364 510.364H89.1818L90.4773 512.068L90.8182 512.523L92.75 515.091H91.2045L89.9318 513.386L89.6136 512.955L87.6364 510.364ZM93.2273 508.182C93.2273 509.409 93.0057 510.47 92.5625 511.364C92.1193 512.258 91.5114 512.947 90.7386 513.432C89.9659 513.917 89.0833 514.159 88.0909 514.159C87.0985 514.159 86.2159 513.917 85.4432 513.432C84.6705 512.947 84.0625 512.258 83.6193 511.364C83.1761 510.47 82.9545 509.409 82.9545 508.182C82.9545 506.955 83.1761 505.894 83.6193 505C84.0625 504.106 84.6705 503.417 85.4432 502.932C86.2159 502.447 87.0985 502.205 88.0909 502.205C89.0833 502.205 89.9659 502.447 90.7386 502.932C91.5114 503.417 92.1193 504.106 92.5625 505C93.0057 505.894 93.2273 506.955 93.2273 508.182ZM91.8636 508.182C91.8636 507.174 91.6951 506.324 91.358 505.631C91.0246 504.938 90.572 504.413 90 504.057C89.4318 503.701 88.7955 503.523 88.0909 503.523C87.3864 503.523 86.7481 503.701 86.1761 504.057C85.608 504.413 85.1553 504.938 84.8182 505.631C84.4848 506.324 84.3182 507.174 84.3182 508.182C84.3182 509.189 84.4848 510.04 84.8182 510.733C85.1553 511.426 85.608 511.951 86.1761 512.307C86.7481 512.663 87.3864 512.841 88.0909 512.841C88.7955 512.841 89.4318 512.663 90 512.307C90.572 511.951 91.0246 511.426 91.358 510.733C91.6951 510.04 91.8636 509.189 91.8636 508.182ZM100.435 510.432V505.273H101.776V514H100.435V512.523H100.344C100.139 512.966 99.8211 513.343 99.3893 513.653C98.9575 513.96 98.412 514.114 97.753 514.114C97.2075 514.114 96.7227 513.994 96.2984 513.756C95.8742 513.513 95.5408 513.15 95.2984 512.665C95.056 512.176 94.9348 511.561 94.9348 510.818V505.273H96.2757V510.727C96.2757 511.364 96.4537 511.871 96.8098 512.25C97.1696 512.629 97.628 512.818 98.1848 512.818C98.5181 512.818 98.8571 512.733 99.2018 512.562C99.5503 512.392 99.842 512.131 100.077 511.778C100.315 511.426 100.435 510.977 100.435 510.432ZM107.411 514.182C106.57 514.182 105.844 513.996 105.235 513.625C104.629 513.25 104.161 512.727 103.831 512.057C103.505 511.383 103.343 510.598 103.343 509.705C103.343 508.811 103.505 508.023 103.831 507.341C104.161 506.655 104.619 506.121 105.206 505.739C105.797 505.352 106.486 505.159 107.274 505.159C107.729 505.159 108.178 505.235 108.621 505.386C109.064 505.538 109.468 505.784 109.831 506.125C110.195 506.462 110.485 506.909 110.701 507.466C110.916 508.023 111.024 508.708 111.024 509.523V510.091H104.297V508.932H109.661C109.661 508.439 109.562 508 109.365 507.614C109.172 507.227 108.896 506.922 108.536 506.699C108.18 506.475 107.759 506.364 107.274 506.364C106.74 506.364 106.278 506.496 105.888 506.761C105.502 507.023 105.204 507.364 104.996 507.784C104.788 508.205 104.683 508.655 104.683 509.136V509.909C104.683 510.568 104.797 511.127 105.024 511.585C105.255 512.04 105.576 512.386 105.985 512.625C106.394 512.86 106.869 512.977 107.411 512.977C107.763 512.977 108.081 512.928 108.365 512.83C108.653 512.727 108.901 512.576 109.11 512.375C109.318 512.17 109.479 511.917 109.593 511.614L110.888 511.977C110.752 512.417 110.522 512.803 110.201 513.136C109.879 513.466 109.481 513.723 109.007 513.909C108.534 514.091 108.002 514.182 107.411 514.182ZM118.766 507.227L117.561 507.568C117.486 507.367 117.374 507.172 117.226 506.983C117.082 506.79 116.885 506.631 116.635 506.506C116.385 506.381 116.065 506.318 115.675 506.318C115.141 506.318 114.696 506.441 114.34 506.688C113.988 506.93 113.811 507.239 113.811 507.614C113.811 507.947 113.933 508.21 114.175 508.403C114.417 508.597 114.796 508.758 115.311 508.886L116.607 509.205C117.387 509.394 117.969 509.684 118.351 510.074C118.734 510.46 118.925 510.958 118.925 511.568C118.925 512.068 118.781 512.515 118.493 512.909C118.209 513.303 117.811 513.614 117.3 513.841C116.789 514.068 116.194 514.182 115.516 514.182C114.626 514.182 113.889 513.989 113.306 513.602C112.722 513.216 112.353 512.652 112.198 511.909L113.471 511.591C113.592 512.061 113.821 512.413 114.158 512.648C114.499 512.883 114.944 513 115.493 513C116.118 513 116.614 512.867 116.982 512.602C117.353 512.333 117.539 512.011 117.539 511.636C117.539 511.333 117.433 511.08 117.221 510.875C117.008 510.667 116.683 510.511 116.243 510.409L114.789 510.068C113.989 509.879 113.402 509.585 113.027 509.188C112.656 508.786 112.471 508.284 112.471 507.682C112.471 507.189 112.609 506.754 112.885 506.375C113.166 505.996 113.546 505.699 114.027 505.483C114.512 505.267 115.061 505.159 115.675 505.159C116.539 505.159 117.217 505.348 117.709 505.727C118.205 506.106 118.558 506.606 118.766 507.227ZM124.259 505.273V506.409H119.736V505.273H124.259ZM121.054 503.182H122.395V511.5C122.395 511.879 122.45 512.163 122.56 512.352C122.674 512.538 122.818 512.663 122.992 512.727C123.17 512.788 123.357 512.818 123.554 512.818C123.702 512.818 123.823 512.811 123.918 512.795C124.013 512.777 124.089 512.761 124.145 512.75L124.418 513.955C124.327 513.989 124.2 514.023 124.037 514.057C123.875 514.095 123.668 514.114 123.418 514.114C123.039 514.114 122.668 514.032 122.304 513.869C121.945 513.706 121.645 513.458 121.407 513.125C121.172 512.792 121.054 512.371 121.054 511.864V503.182ZM125.796 514V505.273H127.137V514H125.796ZM126.478 503.818C126.216 503.818 125.991 503.729 125.802 503.551C125.616 503.373 125.523 503.159 125.523 502.909C125.523 502.659 125.616 502.445 125.802 502.267C125.991 502.089 126.216 502 126.478 502C126.739 502 126.963 502.089 127.148 502.267C127.338 502.445 127.432 502.659 127.432 502.909C127.432 503.159 127.338 503.373 127.148 503.551C126.963 503.729 126.739 503.818 126.478 503.818ZM132.658 514.182C131.87 514.182 131.179 513.994 130.584 513.619C129.994 513.244 129.531 512.72 129.198 512.045C128.869 511.371 128.704 510.583 128.704 509.682C128.704 508.773 128.869 507.979 129.198 507.301C129.531 506.623 129.994 506.097 130.584 505.722C131.179 505.347 131.87 505.159 132.658 505.159C133.446 505.159 134.136 505.347 134.727 505.722C135.321 506.097 135.783 506.623 136.113 507.301C136.446 507.979 136.613 508.773 136.613 509.682C136.613 510.583 136.446 511.371 136.113 512.045C135.783 512.72 135.321 513.244 134.727 513.619C134.136 513.994 133.446 514.182 132.658 514.182ZM132.658 512.977C133.257 512.977 133.749 512.824 134.136 512.517C134.522 512.21 134.808 511.807 134.994 511.307C135.179 510.807 135.272 510.265 135.272 509.682C135.272 509.098 135.179 508.555 134.994 508.051C134.808 507.547 134.522 507.14 134.136 506.83C133.749 506.519 133.257 506.364 132.658 506.364C132.06 506.364 131.567 506.519 131.181 506.83C130.795 507.14 130.509 507.547 130.323 508.051C130.138 508.555 130.045 509.098 130.045 509.682C130.045 510.265 130.138 510.807 130.323 511.307C130.509 511.807 130.795 512.21 131.181 512.517C131.567 512.824 132.06 512.977 132.658 512.977ZM139.521 508.75V514H138.18V505.273H139.475V506.636H139.589C139.793 506.193 140.104 505.837 140.521 505.568C140.937 505.295 141.475 505.159 142.134 505.159C142.725 505.159 143.242 505.28 143.685 505.523C144.129 505.761 144.473 506.125 144.72 506.614C144.966 507.098 145.089 507.712 145.089 508.455V514H143.748V508.545C143.748 507.86 143.57 507.326 143.214 506.943C142.858 506.557 142.369 506.364 141.748 506.364C141.32 506.364 140.937 506.456 140.6 506.642C140.267 506.828 140.004 507.098 139.81 507.455C139.617 507.811 139.521 508.242 139.521 508.75Z"
    fill="white" />
  <path fill-rule="evenodd" clip-rule="evenodd"
    d="M47 511C47 511.552 47.4477 512 48 512C48.5523 512 49 511.552 49 511C48.8512 509.794 49.3874 508.606 50.39 507.92C52.0185 507.318 53.0729 505.735 53 504C52.8552 501.656 50.8447 499.869 48.5 500H47.5C45.1553 499.869 43.1448 501.656 43 504C43 504.552 43.4477 505 44 505C44.5523 505 45 504.552 45 504C45.1564 502.767 46.2633 501.882 47.5 502H48.5C49.7541 501.884 50.8685 502.797 51 504.05C51.0509 504.938 50.5089 505.753 49.67 506.05H49.58C47.8209 507.049 46.8111 508.986 47 511ZM47 515C47 515.552 47.4477 516 48 516C48.5523 516 49 515.552 49 515C49 514.448 48.5523 514 48 514C47.4477 514 47 514.448 47 515Z"
    fill="white" />
  <path fill-rule="evenodd" clip-rule="evenodd"
    d="M48 552C52.2909 552 55.8627 554.429 58.6646 559.154L58.8844 559.533L58.9302 559.633L58.9591 559.716L58.9736 559.771L58.988 559.853L58.999 559.953L58.9982 560.064L58.9849 560.174C58.9784 560.211 58.9698 560.248 58.9591 560.284L58.9203 560.392L58.8844 560.467L58.8682 560.496C56.1039 565.333 52.5685 567.877 48.3127 567.996L48 568C43.6044 568 39.9635 565.451 37.1318 560.496C36.9561 560.189 36.9561 559.811 37.1318 559.504C39.9635 554.549 43.6044 552 48 552ZM48 554C44.5903 554 41.6992 555.895 39.2786 559.806L39.161 560L39.2786 560.194C41.63 563.993 44.4255 565.89 47.709 565.995L48 566C51.4097 566 54.3008 564.105 56.7214 560.194L56.838 560L56.7214 559.806C54.37 556.007 51.5745 554.11 48.291 554.005L48 554ZM48 557C46.3431 557 45 558.343 45 560C45 561.657 46.3431 563 48 563C49.6569 563 51 561.657 51 560C51 558.343 49.6569 557 48 557ZM48 559C48.5523 559 49 559.448 49 560C49 560.552 48.5523 561 48 561C47.4477 561 47 560.552 47 560C47 559.448 47.4477 559 48 559Z"
    fill="white" />
  <path
    d="M85.4091 566V554.364H92.4318V555.614H86.8182V559.545H92.0682V560.795H86.8182V564.75H92.5227V566H85.4091ZM95.1734 569.273C94.9461 569.273 94.7435 569.254 94.5655 569.216C94.3874 569.182 94.2643 569.148 94.1961 569.114L94.537 567.932C94.8628 568.015 95.1507 568.045 95.4007 568.023C95.6507 568 95.8723 567.888 96.0655 567.688C96.2624 567.491 96.4423 567.17 96.6052 566.727L96.8552 566.045L93.628 557.273H95.0825L97.4916 564.227H97.5825L99.9916 557.273H101.446L97.7416 567.273C97.5749 567.723 97.3685 568.097 97.1223 568.392C96.8761 568.691 96.5901 568.913 96.2643 569.057C95.9423 569.201 95.5787 569.273 95.1734 569.273ZM106.083 566.182C105.242 566.182 104.516 565.996 103.906 565.625C103.3 565.25 102.833 564.727 102.503 564.057C102.177 563.383 102.014 562.598 102.014 561.705C102.014 560.811 102.177 560.023 102.503 559.341C102.833 558.655 103.291 558.121 103.878 557.739C104.469 557.352 105.158 557.159 105.946 557.159C106.401 557.159 106.85 557.235 107.293 557.386C107.736 557.538 108.139 557.784 108.503 558.125C108.867 558.462 109.156 558.909 109.372 559.466C109.588 560.023 109.696 560.708 109.696 561.523V562.091H102.969V560.932H108.333C108.333 560.439 108.234 560 108.037 559.614C107.844 559.227 107.567 558.922 107.208 558.699C106.852 558.475 106.431 558.364 105.946 558.364C105.412 558.364 104.95 558.496 104.56 558.761C104.174 559.023 103.876 559.364 103.668 559.784C103.46 560.205 103.355 560.655 103.355 561.136V561.909C103.355 562.568 103.469 563.127 103.696 563.585C103.927 564.04 104.247 564.386 104.656 564.625C105.066 564.86 105.541 564.977 106.083 564.977C106.435 564.977 106.753 564.928 107.037 564.83C107.325 564.727 107.573 564.576 107.781 564.375C107.99 564.17 108.151 563.917 108.264 563.614L109.56 563.977C109.424 564.417 109.194 564.803 108.872 565.136C108.55 565.466 108.153 565.723 107.679 565.909C107.206 566.091 106.674 566.182 106.083 566.182ZM125.276 560.182C125.276 561.409 125.054 562.47 124.611 563.364C124.168 564.258 123.56 564.947 122.787 565.432C122.015 565.917 121.132 566.159 120.14 566.159C119.147 566.159 118.265 565.917 117.492 565.432C116.719 564.947 116.111 564.258 115.668 563.364C115.225 562.47 115.003 561.409 115.003 560.182C115.003 558.955 115.225 557.894 115.668 557C116.111 556.106 116.719 555.417 117.492 554.932C118.265 554.447 119.147 554.205 120.14 554.205C121.132 554.205 122.015 554.447 122.787 554.932C123.56 555.417 124.168 556.106 124.611 557C125.054 557.894 125.276 558.955 125.276 560.182ZM123.912 560.182C123.912 559.174 123.744 558.324 123.407 557.631C123.073 556.938 122.621 556.413 122.049 556.057C121.481 555.701 120.844 555.523 120.14 555.523C119.435 555.523 118.797 555.701 118.225 556.057C117.657 556.413 117.204 556.938 116.867 557.631C116.534 558.324 116.367 559.174 116.367 560.182C116.367 561.189 116.534 562.04 116.867 562.733C117.204 563.426 117.657 563.951 118.225 564.307C118.797 564.663 119.435 564.841 120.14 564.841C120.844 564.841 121.481 564.663 122.049 564.307C122.621 563.951 123.073 563.426 123.407 562.733C123.744 562.04 123.912 561.189 123.912 560.182ZM126.984 569.273V557.273H128.279V558.659H128.438C128.537 558.508 128.673 558.314 128.847 558.08C129.025 557.841 129.279 557.629 129.609 557.443C129.942 557.254 130.393 557.159 130.961 557.159C131.696 557.159 132.343 557.343 132.904 557.71C133.465 558.078 133.902 558.598 134.216 559.273C134.531 559.947 134.688 560.742 134.688 561.659C134.688 562.583 134.531 563.384 134.216 564.062C133.902 564.737 133.466 565.259 132.91 565.631C132.353 565.998 131.711 566.182 130.984 566.182C130.423 566.182 129.974 566.089 129.637 565.903C129.3 565.714 129.04 565.5 128.859 565.261C128.677 565.019 128.537 564.818 128.438 564.659H128.324V569.273H126.984ZM128.302 561.636C128.302 562.295 128.398 562.877 128.591 563.381C128.785 563.881 129.067 564.273 129.438 564.557C129.809 564.837 130.264 564.977 130.802 564.977C131.362 564.977 131.83 564.83 132.205 564.534C132.584 564.235 132.868 563.833 133.057 563.33C133.251 562.822 133.347 562.258 133.347 561.636C133.347 561.023 133.252 560.47 133.063 559.977C132.877 559.481 132.595 559.089 132.216 558.801C131.841 558.509 131.37 558.364 130.802 558.364C130.256 558.364 129.798 558.502 129.427 558.778C129.055 559.051 128.775 559.434 128.586 559.926C128.396 560.415 128.302 560.985 128.302 561.636ZM139.913 566.182C139.072 566.182 138.346 565.996 137.736 565.625C137.13 565.25 136.663 564.727 136.333 564.057C136.007 563.383 135.844 562.598 135.844 561.705C135.844 560.811 136.007 560.023 136.333 559.341C136.663 558.655 137.121 558.121 137.708 557.739C138.299 557.352 138.988 557.159 139.776 557.159C140.231 557.159 140.68 557.235 141.123 557.386C141.566 557.538 141.969 557.784 142.333 558.125C142.697 558.462 142.986 558.909 143.202 559.466C143.418 560.023 143.526 560.708 143.526 561.523V562.091H136.799V560.932H142.163C142.163 560.439 142.064 560 141.867 559.614C141.674 559.227 141.397 558.922 141.038 558.699C140.682 558.475 140.261 558.364 139.776 558.364C139.242 558.364 138.78 558.496 138.39 558.761C138.004 559.023 137.706 559.364 137.498 559.784C137.29 560.205 137.185 560.655 137.185 561.136V561.909C137.185 562.568 137.299 563.127 137.526 563.585C137.757 564.04 138.077 564.386 138.486 564.625C138.896 564.86 139.371 564.977 139.913 564.977C140.265 564.977 140.583 564.928 140.867 564.83C141.155 564.727 141.403 564.576 141.611 564.375C141.82 564.17 141.981 563.917 142.094 563.614L143.39 563.977C143.254 564.417 143.024 564.803 142.702 565.136C142.38 565.466 141.983 565.723 141.509 565.909C141.036 566.091 140.504 566.182 139.913 566.182ZM146.427 560.75V566H145.086V557.273H146.381V558.636H146.495C146.7 558.193 147.01 557.837 147.427 557.568C147.844 557.295 148.381 557.159 149.041 557.159C149.631 557.159 150.149 557.28 150.592 557.523C151.035 557.761 151.38 558.125 151.626 558.614C151.872 559.098 151.995 559.712 151.995 560.455V566H150.654V560.545C150.654 559.86 150.476 559.326 150.12 558.943C149.764 558.557 149.275 558.364 148.654 558.364C148.226 558.364 147.844 558.456 147.506 558.642C147.173 558.828 146.91 559.098 146.717 559.455C146.524 559.811 146.427 560.242 146.427 560.75ZM157.624 566.182C156.784 566.182 156.058 565.996 155.448 565.625C154.842 565.25 154.374 564.727 154.045 564.057C153.719 563.383 153.556 562.598 153.556 561.705C153.556 560.811 153.719 560.023 154.045 559.341C154.374 558.655 154.833 558.121 155.42 557.739C156.011 557.352 156.7 557.159 157.488 557.159C157.943 557.159 158.392 557.235 158.835 557.386C159.278 557.538 159.681 557.784 160.045 558.125C160.409 558.462 160.698 558.909 160.914 559.466C161.13 560.023 161.238 560.708 161.238 561.523V562.091H154.511V560.932H159.874C159.874 560.439 159.776 560 159.579 559.614C159.386 559.227 159.109 558.922 158.749 558.699C158.393 558.475 157.973 558.364 157.488 558.364C156.954 558.364 156.492 558.496 156.102 558.761C155.715 559.023 155.418 559.364 155.21 559.784C155.001 560.205 154.897 560.655 154.897 561.136V561.909C154.897 562.568 155.011 563.127 155.238 563.585C155.469 564.04 155.789 564.386 156.198 564.625C156.607 564.86 157.083 564.977 157.624 564.977C157.977 564.977 158.295 564.928 158.579 564.83C158.867 564.727 159.115 564.576 159.323 564.375C159.532 564.17 159.693 563.917 159.806 563.614L161.102 563.977C160.965 564.417 160.736 564.803 160.414 565.136C160.092 565.466 159.695 565.723 159.221 565.909C158.748 566.091 158.215 566.182 157.624 566.182ZM166.093 566.182C165.366 566.182 164.724 565.998 164.167 565.631C163.61 565.259 163.175 564.737 162.86 564.062C162.546 563.384 162.389 562.583 162.389 561.659C162.389 560.742 162.546 559.947 162.86 559.273C163.175 558.598 163.612 558.078 164.173 557.71C164.734 557.343 165.381 557.159 166.116 557.159C166.684 557.159 167.133 557.254 167.463 557.443C167.796 557.629 168.05 557.841 168.224 558.08C168.402 558.314 168.54 558.508 168.639 558.659H168.752V554.364H170.093V566H168.798V564.659H168.639C168.54 564.818 168.4 565.019 168.218 565.261C168.037 565.5 167.777 565.714 167.44 565.903C167.103 566.089 166.654 566.182 166.093 566.182ZM166.275 564.977C166.813 564.977 167.268 564.837 167.639 564.557C168.01 564.273 168.292 563.881 168.485 563.381C168.679 562.877 168.775 562.295 168.775 561.636C168.775 560.985 168.68 560.415 168.491 559.926C168.302 559.434 168.021 559.051 167.65 558.778C167.279 558.502 166.821 558.364 166.275 558.364C165.707 558.364 165.234 558.509 164.855 558.801C164.48 559.089 164.198 559.481 164.008 559.977C163.823 560.47 163.73 561.023 163.73 561.636C163.73 562.258 163.824 562.822 164.014 563.33C164.207 563.833 164.491 564.235 164.866 564.534C165.245 564.83 165.715 564.977 166.275 564.977Z"
    fill="white" />
  <path fill-rule="evenodd" clip-rule="evenodd"
    d="M52.9152 603.003C54.3212 602.884 55.484 603.988 55.9305 605.607L55.9806 605.804L56.9806 610.804L57 611C57 612.598 55.7511 613.904 54.1763 613.995L54 614L52 613.999V618C52 619.598 50.7511 620.904 49.1763 620.995L49 621C47.4023 621 46.0963 619.751 46.0051 618.176L46 618V617C46 615.402 44.7511 614.096 43.1763 614.005L43 614H40C38.9456 614 38.0818 613.184 38.0055 612.149L38 612V605C38 603.946 38.8159 603.082 39.8507 603.005L40 603H42C42.5934 603 43.1264 603.258 43.4926 603.669L43.6 603.8L43.6678 603.75C44.2739 603.314 45.0067 603.044 45.8004 603.005L46 603L52.9152 603.003ZM53.0863 605L46 605C44.9456 605 44.0818 605.816 44.0055 606.851L44 606.999V612.101L44.059 612.112C46.2435 612.583 47.8972 614.482 47.9954 616.783L48 617V618C48 618.552 48.4477 619 49 619C49.5128 619 49.9355 618.614 49.9933 618.117L50 618V613C50 612.487 50.386 612.064 50.8834 612.007L51 612H54C54.5128 612 54.9355 611.614 54.9933 611.117L54.995 611.077L54.0264 606.228C53.8463 605.46 53.4614 605.033 53.0863 605ZM40 612L42 611.999V605H40V612Z"
    fill="white" />
  <path
    d="M84.7727 607.614V606.364H93.5V607.614H89.8409V618H88.4318V607.614H84.7727ZM96.3538 612.75V618H95.0129V606.364H96.3538V610.636H96.4674C96.672 610.186 96.9788 609.828 97.3879 609.562C97.8008 609.294 98.35 609.159 99.0356 609.159C99.6303 609.159 100.151 609.278 100.598 609.517C101.045 609.752 101.392 610.114 101.638 610.602C101.888 611.087 102.013 611.705 102.013 612.455V618H100.672V612.545C100.672 611.852 100.492 611.316 100.132 610.938C99.7762 610.555 99.2818 610.364 98.6493 610.364C98.2099 610.364 97.8159 610.456 97.4674 610.642C97.1227 610.828 96.85 611.098 96.6493 611.455C96.4523 611.811 96.3538 612.242 96.3538 612.75ZM109.486 614.432V609.273H110.827V618H109.486V616.523H109.395C109.191 616.966 108.872 617.343 108.441 617.653C108.009 617.96 107.463 618.114 106.804 618.114C106.259 618.114 105.774 617.994 105.35 617.756C104.925 617.513 104.592 617.15 104.35 616.665C104.107 616.176 103.986 615.561 103.986 614.818V609.273H105.327V614.727C105.327 615.364 105.505 615.871 105.861 616.25C106.221 616.629 106.679 616.818 107.236 616.818C107.569 616.818 107.908 616.733 108.253 616.562C108.602 616.392 108.893 616.131 109.128 615.778C109.367 615.426 109.486 614.977 109.486 614.432ZM112.803 618V609.273H114.098V610.636H114.212C114.394 610.17 114.687 609.809 115.093 609.551C115.498 609.29 115.985 609.159 116.553 609.159C117.129 609.159 117.608 609.29 117.99 609.551C118.377 609.809 118.678 610.17 118.894 610.636H118.985C119.208 610.186 119.543 609.828 119.99 609.562C120.437 609.294 120.973 609.159 121.598 609.159C122.379 609.159 123.017 609.403 123.513 609.892C124.009 610.377 124.257 611.133 124.257 612.159V618H122.917V612.159C122.917 611.515 122.74 611.055 122.388 610.778C122.036 610.502 121.621 610.364 121.144 610.364C120.53 610.364 120.055 610.549 119.718 610.92C119.381 611.288 119.212 611.754 119.212 612.318V618H117.848V612.023C117.848 611.527 117.687 611.127 117.365 610.824C117.043 610.517 116.629 610.364 116.121 610.364C115.773 610.364 115.447 610.456 115.144 610.642C114.845 610.828 114.602 611.085 114.417 611.415C114.235 611.741 114.144 612.117 114.144 612.545V618H112.803ZM126.411 618V606.364H127.752V610.659H127.866C127.964 610.508 128.1 610.314 128.275 610.08C128.453 609.841 128.706 609.629 129.036 609.443C129.369 609.254 129.82 609.159 130.388 609.159C131.123 609.159 131.771 609.343 132.331 609.71C132.892 610.078 133.33 610.598 133.644 611.273C133.958 611.947 134.116 612.742 134.116 613.659C134.116 614.583 133.958 615.384 133.644 616.062C133.33 616.737 132.894 617.259 132.337 617.631C131.78 617.998 131.138 618.182 130.411 618.182C129.85 618.182 129.401 618.089 129.064 617.903C128.727 617.714 128.468 617.5 128.286 617.261C128.104 617.019 127.964 616.818 127.866 616.659H127.706V618H126.411ZM127.729 613.636C127.729 614.295 127.826 614.877 128.019 615.381C128.212 615.881 128.494 616.273 128.866 616.557C129.237 616.837 129.691 616.977 130.229 616.977C130.79 616.977 131.258 616.83 131.633 616.534C132.011 616.235 132.295 615.833 132.485 615.33C132.678 614.822 132.775 614.258 132.775 613.636C132.775 613.023 132.68 612.47 132.491 611.977C132.305 611.481 132.023 611.089 131.644 610.801C131.269 610.509 130.797 610.364 130.229 610.364C129.684 610.364 129.225 610.502 128.854 610.778C128.483 611.051 128.203 611.434 128.013 611.926C127.824 612.415 127.729 612.985 127.729 613.636ZM141.868 611.227L140.664 611.568C140.588 611.367 140.476 611.172 140.329 610.983C140.185 610.79 139.988 610.631 139.738 610.506C139.488 610.381 139.168 610.318 138.778 610.318C138.243 610.318 137.798 610.441 137.442 610.688C137.09 610.93 136.914 611.239 136.914 611.614C136.914 611.947 137.035 612.21 137.278 612.403C137.52 612.597 137.899 612.758 138.414 612.886L139.709 613.205C140.49 613.394 141.071 613.684 141.454 614.074C141.836 614.46 142.028 614.958 142.028 615.568C142.028 616.068 141.884 616.515 141.596 616.909C141.312 617.303 140.914 617.614 140.403 617.841C139.891 618.068 139.296 618.182 138.618 618.182C137.728 618.182 136.992 617.989 136.408 617.602C135.825 617.216 135.456 616.652 135.3 615.909L136.573 615.591C136.694 616.061 136.923 616.413 137.261 616.648C137.601 616.883 138.046 617 138.596 617C139.221 617 139.717 616.867 140.084 616.602C140.456 616.333 140.641 616.011 140.641 615.636C140.641 615.333 140.535 615.08 140.323 614.875C140.111 614.667 139.785 614.511 139.346 614.409L137.891 614.068C137.092 613.879 136.505 613.585 136.13 613.188C135.759 612.786 135.573 612.284 135.573 611.682C135.573 611.189 135.711 610.754 135.988 610.375C136.268 609.996 136.649 609.699 137.13 609.483C137.615 609.267 138.164 609.159 138.778 609.159C139.641 609.159 140.319 609.348 140.812 609.727C141.308 610.106 141.66 610.606 141.868 611.227ZM151.359 618H147.768V606.364H151.518C152.647 606.364 153.613 606.597 154.416 607.062C155.219 607.525 155.834 608.189 156.262 609.057C156.69 609.92 156.904 610.955 156.904 612.159C156.904 613.371 156.688 614.415 156.256 615.29C155.825 616.161 155.196 616.831 154.37 617.301C153.544 617.767 152.541 618 151.359 618ZM149.177 616.75H151.268C152.23 616.75 153.027 616.564 153.66 616.193C154.292 615.822 154.764 615.294 155.075 614.608C155.385 613.922 155.541 613.106 155.541 612.159C155.541 611.22 155.387 610.411 155.08 609.733C154.774 609.051 154.315 608.528 153.705 608.165C153.095 607.797 152.336 607.614 151.427 607.614H149.177V616.75ZM162.151 618.182C161.364 618.182 160.672 617.994 160.078 617.619C159.487 617.244 159.025 616.72 158.691 616.045C158.362 615.371 158.197 614.583 158.197 613.682C158.197 612.773 158.362 611.979 158.691 611.301C159.025 610.623 159.487 610.097 160.078 609.722C160.672 609.347 161.364 609.159 162.151 609.159C162.939 609.159 163.629 609.347 164.22 609.722C164.814 610.097 165.276 610.623 165.606 611.301C165.939 611.979 166.106 612.773 166.106 613.682C166.106 614.583 165.939 615.371 165.606 616.045C165.276 616.72 164.814 617.244 164.22 617.619C163.629 617.994 162.939 618.182 162.151 618.182ZM162.151 616.977C162.75 616.977 163.242 616.824 163.629 616.517C164.015 616.21 164.301 615.807 164.487 615.307C164.672 614.807 164.765 614.265 164.765 613.682C164.765 613.098 164.672 612.555 164.487 612.051C164.301 611.547 164.015 611.14 163.629 610.83C163.242 610.519 162.75 610.364 162.151 610.364C161.553 610.364 161.061 610.519 160.674 610.83C160.288 611.14 160.002 611.547 159.816 612.051C159.631 612.555 159.538 613.098 159.538 613.682C159.538 614.265 159.631 614.807 159.816 615.307C160.002 615.807 160.288 616.21 160.674 616.517C161.061 616.824 161.553 616.977 162.151 616.977ZM169.353 618L166.694 609.273H168.103L169.99 615.955H170.081L171.944 609.273H173.376L175.217 615.932H175.308L177.194 609.273H178.603L175.944 618H174.626L172.717 611.295H172.581L170.671 618H169.353ZM181.237 612.75V618H179.896V609.273H181.191V610.636H181.305C181.51 610.193 181.82 609.837 182.237 609.568C182.654 609.295 183.191 609.159 183.851 609.159C184.441 609.159 184.959 609.28 185.402 609.523C185.845 609.761 186.19 610.125 186.436 610.614C186.682 611.098 186.805 611.712 186.805 612.455V618H185.464V612.545C185.464 611.86 185.286 611.326 184.93 610.943C184.574 610.557 184.085 610.364 183.464 610.364C183.036 610.364 182.654 610.456 182.316 610.642C181.983 610.828 181.72 611.098 181.527 611.455C181.334 611.811 181.237 612.242 181.237 612.75Z"
    fill="white" />
  <path fill-rule="evenodd" clip-rule="evenodd"
    d="M49 655C50.5977 655 51.9037 656.249 51.9949 657.824L52 658V662H54C55.5977 662 56.9037 663.249 56.9949 664.824L57 665L56.9806 665.196L55.9736 670.228C55.5925 671.854 54.4721 673.024 53.1644 673.008L53 673H46C45.1297 673 44.3244 672.722 43.6678 672.25L43.6 672.199C43.2605 672.65 42.7406 672.951 42.1493 672.995L42 673H40C38.9456 673 38.0818 672.184 38.0055 671.149L38 671V664C38 662.946 38.8159 662.082 39.8507 662.005L40 662H43C44.5977 662 45.9037 660.751 45.9949 659.176L46 659V658C46 656.343 47.3431 655 49 655ZM49 657C48.4872 657 48.0645 657.386 48.0067 657.883L48 658V659C48 661.398 46.3118 663.402 44.059 663.888L44 663.898V669C44 670.054 44.8159 670.918 45.8507 670.995L46 671L53.0848 671.004C53.3784 671.029 53.7714 670.658 53.9757 669.969L54.0194 669.804L54.995 664.921L54.9933 664.883C54.94 664.424 54.5757 664.06 54.1166 664.007L54 664H51C50.4872 664 50.0645 663.614 50.0067 663.117L50 663V658C50 657.448 49.5523 657 49 657ZM42 671V664H40V671H42Z"
    fill="white" />
  <path
    d="M84.7727 659.614V658.364H93.5V659.614H89.8409V670H88.4318V659.614H84.7727ZM96.3538 664.75V670H95.0129V658.364H96.3538V662.636H96.4674C96.672 662.186 96.9788 661.828 97.3879 661.562C97.8008 661.294 98.35 661.159 99.0356 661.159C99.6303 661.159 100.151 661.278 100.598 661.517C101.045 661.752 101.392 662.114 101.638 662.602C101.888 663.087 102.013 663.705 102.013 664.455V670H100.672V664.545C100.672 663.852 100.492 663.316 100.132 662.938C99.7762 662.555 99.2818 662.364 98.6493 662.364C98.2099 662.364 97.8159 662.456 97.4674 662.642C97.1227 662.828 96.85 663.098 96.6493 663.455C96.4523 663.811 96.3538 664.242 96.3538 664.75ZM109.486 666.432V661.273H110.827V670H109.486V668.523H109.395C109.191 668.966 108.872 669.343 108.441 669.653C108.009 669.96 107.463 670.114 106.804 670.114C106.259 670.114 105.774 669.994 105.35 669.756C104.925 669.513 104.592 669.15 104.35 668.665C104.107 668.176 103.986 667.561 103.986 666.818V661.273H105.327V666.727C105.327 667.364 105.505 667.871 105.861 668.25C106.221 668.629 106.679 668.818 107.236 668.818C107.569 668.818 107.908 668.733 108.253 668.562C108.602 668.392 108.893 668.131 109.128 667.778C109.367 667.426 109.486 666.977 109.486 666.432ZM112.803 670V661.273H114.098V662.636H114.212C114.394 662.17 114.687 661.809 115.093 661.551C115.498 661.29 115.985 661.159 116.553 661.159C117.129 661.159 117.608 661.29 117.99 661.551C118.377 661.809 118.678 662.17 118.894 662.636H118.985C119.208 662.186 119.543 661.828 119.99 661.562C120.437 661.294 120.973 661.159 121.598 661.159C122.379 661.159 123.017 661.403 123.513 661.892C124.009 662.377 124.257 663.133 124.257 664.159V670H122.917V664.159C122.917 663.515 122.74 663.055 122.388 662.778C122.036 662.502 121.621 662.364 121.144 662.364C120.53 662.364 120.055 662.549 119.718 662.92C119.381 663.288 119.212 663.754 119.212 664.318V670H117.848V664.023C117.848 663.527 117.687 663.127 117.365 662.824C117.043 662.517 116.629 662.364 116.121 662.364C115.773 662.364 115.447 662.456 115.144 662.642C114.845 662.828 114.602 663.085 114.417 663.415C114.235 663.741 114.144 664.117 114.144 664.545V670H112.803ZM126.411 670V658.364H127.752V662.659H127.866C127.964 662.508 128.1 662.314 128.275 662.08C128.453 661.841 128.706 661.629 129.036 661.443C129.369 661.254 129.82 661.159 130.388 661.159C131.123 661.159 131.771 661.343 132.331 661.71C132.892 662.078 133.33 662.598 133.644 663.273C133.958 663.947 134.116 664.742 134.116 665.659C134.116 666.583 133.958 667.384 133.644 668.062C133.33 668.737 132.894 669.259 132.337 669.631C131.78 669.998 131.138 670.182 130.411 670.182C129.85 670.182 129.401 670.089 129.064 669.903C128.727 669.714 128.468 669.5 128.286 669.261C128.104 669.019 127.964 668.818 127.866 668.659H127.706V670H126.411ZM127.729 665.636C127.729 666.295 127.826 666.877 128.019 667.381C128.212 667.881 128.494 668.273 128.866 668.557C129.237 668.837 129.691 668.977 130.229 668.977C130.79 668.977 131.258 668.83 131.633 668.534C132.011 668.235 132.295 667.833 132.485 667.33C132.678 666.822 132.775 666.258 132.775 665.636C132.775 665.023 132.68 664.47 132.491 663.977C132.305 663.481 132.023 663.089 131.644 662.801C131.269 662.509 130.797 662.364 130.229 662.364C129.684 662.364 129.225 662.502 128.854 662.778C128.483 663.051 128.203 663.434 128.013 663.926C127.824 664.415 127.729 664.985 127.729 665.636ZM141.868 663.227L140.664 663.568C140.588 663.367 140.476 663.172 140.329 662.983C140.185 662.79 139.988 662.631 139.738 662.506C139.488 662.381 139.168 662.318 138.778 662.318C138.243 662.318 137.798 662.441 137.442 662.688C137.09 662.93 136.914 663.239 136.914 663.614C136.914 663.947 137.035 664.21 137.278 664.403C137.52 664.597 137.899 664.758 138.414 664.886L139.709 665.205C140.49 665.394 141.071 665.684 141.454 666.074C141.836 666.46 142.028 666.958 142.028 667.568C142.028 668.068 141.884 668.515 141.596 668.909C141.312 669.303 140.914 669.614 140.403 669.841C139.891 670.068 139.296 670.182 138.618 670.182C137.728 670.182 136.992 669.989 136.408 669.602C135.825 669.216 135.456 668.652 135.3 667.909L136.573 667.591C136.694 668.061 136.923 668.413 137.261 668.648C137.601 668.883 138.046 669 138.596 669C139.221 669 139.717 668.867 140.084 668.602C140.456 668.333 140.641 668.011 140.641 667.636C140.641 667.333 140.535 667.08 140.323 666.875C140.111 666.667 139.785 666.511 139.346 666.409L137.891 666.068C137.092 665.879 136.505 665.585 136.13 665.188C135.759 664.786 135.573 664.284 135.573 663.682C135.573 663.189 135.711 662.754 135.988 662.375C136.268 661.996 136.649 661.699 137.13 661.483C137.615 661.267 138.164 661.159 138.778 661.159C139.641 661.159 140.319 661.348 140.812 661.727C141.308 662.106 141.66 662.606 141.868 663.227ZM155.404 658.364H156.813V666.068C156.813 666.864 156.626 667.574 156.251 668.199C155.88 668.82 155.355 669.311 154.677 669.67C153.999 670.027 153.203 670.205 152.291 670.205C151.378 670.205 150.582 670.027 149.904 669.67C149.226 669.311 148.7 668.82 148.325 668.199C147.953 667.574 147.768 666.864 147.768 666.068V658.364H149.177V665.955C149.177 666.523 149.302 667.028 149.552 667.472C149.802 667.911 150.158 668.258 150.62 668.511C151.086 668.761 151.643 668.886 152.291 668.886C152.938 668.886 153.495 668.761 153.961 668.511C154.427 668.258 154.783 667.911 155.029 667.472C155.279 667.028 155.404 666.523 155.404 665.955V658.364ZM158.965 673.273V661.273H160.261V662.659H160.42C160.518 662.508 160.655 662.314 160.829 662.08C161.007 661.841 161.261 661.629 161.59 661.443C161.924 661.254 162.374 661.159 162.943 661.159C163.678 661.159 164.325 661.343 164.886 661.71C165.446 662.078 165.884 662.598 166.198 663.273C166.513 663.947 166.67 664.742 166.67 665.659C166.67 666.583 166.513 667.384 166.198 668.062C165.884 668.737 165.448 669.259 164.892 669.631C164.335 669.998 163.693 670.182 162.965 670.182C162.405 670.182 161.956 670.089 161.619 669.903C161.282 669.714 161.022 669.5 160.84 669.261C160.659 669.019 160.518 668.818 160.42 668.659H160.306V673.273H158.965ZM160.284 665.636C160.284 666.295 160.38 666.877 160.573 667.381C160.767 667.881 161.049 668.273 161.42 668.557C161.791 668.837 162.246 668.977 162.784 668.977C163.344 668.977 163.812 668.83 164.187 668.534C164.566 668.235 164.85 667.833 165.039 667.33C165.232 666.822 165.329 666.258 165.329 665.636C165.329 665.023 165.234 664.47 165.045 663.977C164.859 663.481 164.577 663.089 164.198 662.801C163.823 662.509 163.352 662.364 162.784 662.364C162.238 662.364 161.78 662.502 161.409 662.778C161.037 663.051 160.757 663.434 160.568 663.926C160.378 664.415 160.284 664.985 160.284 665.636Z"
    fill="white" />
  <path fill-rule="evenodd" clip-rule="evenodd"
    d="M49.4341 710.036C46.8361 709.558 44.4541 711.086 43.9789 713.22C43.8771 713.677 43.4711 714.002 43.0024 714.002C40.9122 714.002 39.3007 715.605 39.3007 717.502C39.3007 719.388 40.9208 721.002 43.0124 721.002C43.5649 721.002 44.0128 721.45 44.0128 722.002C44.0128 722.555 43.5649 723.002 43.0124 723.002C39.9016 723.002 37.2998 720.577 37.2998 717.502C37.2998 714.675 39.4789 712.407 42.241 712.051C43.3049 709.151 46.5739 707.476 49.7953 708.069C52.8629 708.626 55.1289 711.111 55.114 714.004C57.5421 714.065 59.4998 716.047 59.4998 718.502C59.4998 720.985 57.4812 723.002 54.9978 723.002H53.9973C53.4448 723.002 52.9969 722.555 52.9969 722.002C52.9969 721.45 53.4448 721.002 53.9973 721.002H54.9978C56.3761 721.002 57.4989 719.88 57.4989 718.502C57.4989 717.117 56.378 716.002 54.9978 716.002H53.9973C53.6932 716.002 53.4056 715.864 53.2157 715.627C53.0259 715.389 52.9544 715.078 53.0215 714.782C53.4949 712.691 52.0071 710.503 49.4367 710.036L49.4341 710.036Z"
    fill="white" />
  <path fill-rule="evenodd" clip-rule="evenodd"
    d="M47.3072 715.295C47.6979 714.905 48.3314 714.905 48.7221 715.295L51.7234 718.295C52.1141 718.686 52.1141 719.319 51.7234 719.71C51.3327 720.1 50.6993 720.1 50.3086 719.71L48.0146 717.417L45.7207 719.71C45.33 720.1 44.6966 720.1 44.3059 719.71C43.9152 719.319 43.9152 718.686 44.3059 718.295L47.3072 715.295Z"
    fill="white" />
  <path fill-rule="evenodd" clip-rule="evenodd"
    d="M48.0146 715.002C48.5672 715.002 49.0151 715.45 49.0151 716.002V725.002C49.0151 725.555 48.5672 726.002 48.0146 726.002C47.4621 726.002 47.0142 725.555 47.0142 725.002V716.002C47.0142 715.45 47.4621 715.002 48.0146 715.002Z"
    fill="white" />
  <path
    d="M93.0455 710.364H94.4545V718.068C94.4545 718.864 94.267 719.574 93.892 720.199C93.5208 720.82 92.9962 721.311 92.3182 721.67C91.6402 722.027 90.8447 722.205 89.9318 722.205C89.0189 722.205 88.2235 722.027 87.5455 721.67C86.8674 721.311 86.3409 720.82 85.9659 720.199C85.5947 719.574 85.4091 718.864 85.4091 718.068V710.364H86.8182V717.955C86.8182 718.523 86.9432 719.028 87.1932 719.472C87.4432 719.911 87.7992 720.258 88.2614 720.511C88.7273 720.761 89.2841 720.886 89.9318 720.886C90.5795 720.886 91.1364 720.761 91.6023 720.511C92.0682 720.258 92.4242 719.911 92.6705 719.472C92.9205 719.028 93.0455 718.523 93.0455 717.955V710.364ZM96.6066 725.273V713.273H97.9021V714.659H98.0612C98.1597 714.508 98.296 714.314 98.4703 714.08C98.6483 713.841 98.9021 713.629 99.2316 713.443C99.565 713.254 100.016 713.159 100.584 713.159C101.319 713.159 101.966 713.343 102.527 713.71C103.088 714.078 103.525 714.598 103.84 715.273C104.154 715.947 104.311 716.742 104.311 717.659C104.311 718.583 104.154 719.384 103.84 720.062C103.525 720.737 103.09 721.259 102.533 721.631C101.976 721.998 101.334 722.182 100.607 722.182C100.046 722.182 99.5972 722.089 99.2601 721.903C98.9229 721.714 98.6635 721.5 98.4816 721.261C98.2998 721.019 98.1597 720.818 98.0612 720.659H97.9476V725.273H96.6066ZM97.9248 717.636C97.9248 718.295 98.0214 718.877 98.2146 719.381C98.4078 719.881 98.69 720.273 99.0612 720.557C99.4324 720.837 99.887 720.977 100.425 720.977C100.985 720.977 101.453 720.83 101.828 720.534C102.207 720.235 102.491 719.833 102.681 719.33C102.874 718.822 102.97 718.258 102.97 717.636C102.97 717.023 102.876 716.47 102.686 715.977C102.501 715.481 102.218 715.089 101.84 714.801C101.465 714.509 100.993 714.364 100.425 714.364C99.8794 714.364 99.421 714.502 99.0498 714.778C98.6786 715.051 98.3983 715.434 98.2089 715.926C98.0195 716.415 97.9248 716.985 97.9248 717.636ZM107.218 710.364V722H105.877V710.364H107.218ZM112.739 722.182C111.951 722.182 111.26 721.994 110.665 721.619C110.074 721.244 109.612 720.72 109.279 720.045C108.949 719.371 108.784 718.583 108.784 717.682C108.784 716.773 108.949 715.979 109.279 715.301C109.612 714.623 110.074 714.097 110.665 713.722C111.26 713.347 111.951 713.159 112.739 713.159C113.527 713.159 114.216 713.347 114.807 713.722C115.402 714.097 115.864 714.623 116.194 715.301C116.527 715.979 116.694 716.773 116.694 717.682C116.694 718.583 116.527 719.371 116.194 720.045C115.864 720.72 115.402 721.244 114.807 721.619C114.216 721.994 113.527 722.182 112.739 722.182ZM112.739 720.977C113.337 720.977 113.83 720.824 114.216 720.517C114.603 720.21 114.889 719.807 115.074 719.307C115.26 718.807 115.353 718.265 115.353 717.682C115.353 717.098 115.26 716.555 115.074 716.051C114.889 715.547 114.603 715.14 114.216 714.83C113.83 714.519 113.337 714.364 112.739 714.364C112.14 714.364 111.648 714.519 111.262 714.83C110.875 715.14 110.589 715.547 110.404 716.051C110.218 716.555 110.125 717.098 110.125 717.682C110.125 718.265 110.218 718.807 110.404 719.307C110.589 719.807 110.875 720.21 111.262 720.517C111.648 720.824 112.14 720.977 112.739 720.977ZM120.829 722.205C120.276 722.205 119.774 722.1 119.323 721.892C118.872 721.68 118.514 721.375 118.249 720.977C117.984 720.576 117.851 720.091 117.851 719.523C117.851 719.023 117.95 718.617 118.147 718.307C118.344 717.992 118.607 717.746 118.937 717.568C119.266 717.39 119.63 717.258 120.027 717.17C120.429 717.08 120.832 717.008 121.238 716.955C121.768 716.886 122.198 716.835 122.527 716.801C122.861 716.763 123.103 716.701 123.255 716.614C123.41 716.527 123.488 716.375 123.488 716.159V716.114C123.488 715.553 123.334 715.117 123.027 714.807C122.724 714.496 122.264 714.341 121.647 714.341C121.007 714.341 120.505 714.481 120.141 714.761C119.777 715.042 119.522 715.341 119.374 715.659L118.101 715.205C118.329 714.674 118.632 714.261 119.01 713.966C119.393 713.667 119.81 713.458 120.26 713.341C120.715 713.22 121.162 713.159 121.601 713.159C121.882 713.159 122.204 713.193 122.567 713.261C122.935 713.326 123.289 713.46 123.63 713.665C123.974 713.869 124.26 714.178 124.488 714.591C124.715 715.004 124.829 715.557 124.829 716.25V722H123.488V720.818H123.419C123.329 721.008 123.177 721.21 122.965 721.426C122.753 721.642 122.471 721.826 122.118 721.977C121.766 722.129 121.336 722.205 120.829 722.205ZM121.033 721C121.563 721 122.01 720.896 122.374 720.688C122.741 720.479 123.018 720.21 123.204 719.881C123.393 719.551 123.488 719.205 123.488 718.841V717.614C123.431 717.682 123.306 717.744 123.113 717.801C122.923 717.854 122.704 717.902 122.454 717.943C122.207 717.981 121.967 718.015 121.732 718.045C121.501 718.072 121.313 718.095 121.169 718.114C120.821 718.159 120.495 718.233 120.192 718.335C119.893 718.434 119.651 718.583 119.465 718.784C119.283 718.981 119.192 719.25 119.192 719.591C119.192 720.057 119.365 720.409 119.709 720.648C120.058 720.883 120.499 721 121.033 721ZM130.091 722.182C129.364 722.182 128.722 721.998 128.165 721.631C127.609 721.259 127.173 720.737 126.859 720.062C126.544 719.384 126.387 718.583 126.387 717.659C126.387 716.742 126.544 715.947 126.859 715.273C127.173 714.598 127.61 714.078 128.171 713.71C128.732 713.343 129.379 713.159 130.114 713.159C130.682 713.159 131.131 713.254 131.461 713.443C131.794 713.629 132.048 713.841 132.222 714.08C132.4 714.314 132.538 714.508 132.637 714.659H132.751V710.364H134.091V722H132.796V720.659H132.637C132.538 720.818 132.398 721.019 132.216 721.261C132.035 721.5 131.775 721.714 131.438 721.903C131.101 722.089 130.652 722.182 130.091 722.182ZM130.273 720.977C130.811 720.977 131.266 720.837 131.637 720.557C132.008 720.273 132.29 719.881 132.484 719.381C132.677 718.877 132.773 718.295 132.773 717.636C132.773 716.985 132.679 716.415 132.489 715.926C132.3 715.434 132.02 715.051 131.648 714.778C131.277 714.502 130.819 714.364 130.273 714.364C129.705 714.364 129.232 714.509 128.853 714.801C128.478 715.089 128.196 715.481 128.006 715.977C127.821 716.47 127.728 717.023 127.728 717.636C127.728 718.258 127.823 718.822 128.012 719.33C128.205 719.833 128.489 720.235 128.864 720.534C129.243 720.83 129.713 720.977 130.273 720.977Z"
    fill="white" />
  <path fill-rule="evenodd" clip-rule="evenodd"
    d="M48 758C45.2386 758 43 760.239 43 763C43 765.761 45.2386 768 48 768C50.7614 768 53 765.761 53 763C53 760.239 50.7614 758 48 758ZM48 760C49.6569 760 51 761.343 51 763C51 764.657 49.6569 766 48 766C46.3431 766 45 764.657 45 763C45 761.343 46.3431 760 48 760ZM54.9954 774.783C54.8818 772.122 52.6888 770 50 770H46L45.7831 770.005C43.1223 770.118 41 772.311 41 775V777L41.0067 777.117C41.0645 777.614 41.4872 778 42 778C42.5523 778 43 777.552 43 777V775L43.0051 774.824C43.0963 773.249 44.4023 772 46 772H50L50.1763 772.005C51.7511 772.096 53 773.402 53 775V777L53.0067 777.117C53.0645 777.614 53.4872 778 54 778C54.5523 778 55 777.552 55 777V775L54.9954 774.783Z"
    fill="white" />
  <path
    d="M93.0455 762.364H94.4545V770.068C94.4545 770.864 94.267 771.574 93.892 772.199C93.5208 772.82 92.9962 773.311 92.3182 773.67C91.6402 774.027 90.8447 774.205 89.9318 774.205C89.0189 774.205 88.2235 774.027 87.5455 773.67C86.8674 773.311 86.3409 772.82 85.9659 772.199C85.5947 771.574 85.4091 770.864 85.4091 770.068V762.364H86.8182V769.955C86.8182 770.523 86.9432 771.028 87.1932 771.472C87.4432 771.911 87.7992 772.258 88.2614 772.511C88.7273 772.761 89.2841 772.886 89.9318 772.886C90.5795 772.886 91.1364 772.761 91.6023 772.511C92.0682 772.258 92.4242 771.911 92.6705 771.472C92.9205 771.028 93.0455 770.523 93.0455 769.955V762.364ZM102.788 767.227L101.584 767.568C101.508 767.367 101.396 767.172 101.249 766.983C101.105 766.79 100.908 766.631 100.658 766.506C100.408 766.381 100.088 766.318 99.6976 766.318C99.1635 766.318 98.7184 766.441 98.3623 766.688C98.0101 766.93 97.8339 767.239 97.8339 767.614C97.8339 767.947 97.9551 768.21 98.1976 768.403C98.44 768.597 98.8188 768.758 99.3339 768.886L100.629 769.205C101.41 769.394 101.991 769.684 102.374 770.074C102.756 770.46 102.948 770.958 102.948 771.568C102.948 772.068 102.804 772.515 102.516 772.909C102.232 773.303 101.834 773.614 101.323 773.841C100.811 774.068 100.216 774.182 99.5385 774.182C98.6483 774.182 97.9116 773.989 97.3282 773.602C96.7449 773.216 96.3756 772.652 96.2203 771.909L97.493 771.591C97.6142 772.061 97.8434 772.413 98.1805 772.648C98.5214 772.883 98.9665 773 99.5157 773C100.141 773 100.637 772.867 101.004 772.602C101.376 772.333 101.561 772.011 101.561 771.636C101.561 771.333 101.455 771.08 101.243 770.875C101.031 770.667 100.705 770.511 100.266 770.409L98.8112 770.068C98.012 769.879 97.4248 769.585 97.0498 769.188C96.6786 768.786 96.493 768.284 96.493 767.682C96.493 767.189 96.6313 766.754 96.9078 766.375C97.1881 765.996 97.5688 765.699 98.0498 765.483C98.5347 765.267 99.0839 765.159 99.6976 765.159C100.561 765.159 101.239 765.348 101.732 765.727C102.228 766.106 102.58 766.606 102.788 767.227ZM108.145 774.182C107.304 774.182 106.579 773.996 105.969 773.625C105.363 773.25 104.895 772.727 104.566 772.057C104.24 771.383 104.077 770.598 104.077 769.705C104.077 768.811 104.24 768.023 104.566 767.341C104.895 766.655 105.353 766.121 105.941 765.739C106.531 765.352 107.221 765.159 108.009 765.159C108.463 765.159 108.912 765.235 109.355 765.386C109.799 765.538 110.202 765.784 110.566 766.125C110.929 766.462 111.219 766.909 111.435 767.466C111.651 768.023 111.759 768.708 111.759 769.523V770.091H105.031V768.932H110.395C110.395 768.439 110.297 768 110.1 767.614C109.906 767.227 109.63 766.922 109.27 766.699C108.914 766.475 108.494 766.364 108.009 766.364C107.475 766.364 107.013 766.496 106.622 766.761C106.236 767.023 105.939 767.364 105.73 767.784C105.522 768.205 105.418 768.655 105.418 769.136V769.909C105.418 770.568 105.531 771.127 105.759 771.585C105.99 772.04 106.31 772.386 106.719 772.625C107.128 772.86 107.603 772.977 108.145 772.977C108.497 772.977 108.816 772.928 109.1 772.83C109.388 772.727 109.636 772.576 109.844 772.375C110.052 772.17 110.213 771.917 110.327 771.614L111.622 771.977C111.486 772.417 111.257 772.803 110.935 773.136C110.613 773.466 110.215 773.723 109.742 773.909C109.268 774.091 108.736 774.182 108.145 774.182ZM113.319 774V765.273H114.614V766.591H114.705C114.864 766.159 115.152 765.809 115.569 765.54C115.985 765.271 116.455 765.136 116.978 765.136C117.076 765.136 117.199 765.138 117.347 765.142C117.495 765.146 117.606 765.152 117.682 765.159V766.523C117.637 766.511 117.533 766.494 117.37 766.472C117.211 766.445 117.042 766.432 116.864 766.432C116.44 766.432 116.061 766.521 115.728 766.699C115.398 766.873 115.137 767.116 114.944 767.426C114.754 767.733 114.659 768.083 114.659 768.477V774H113.319Z"
    fill="white" />
</svg>
